<svg width="173" height="200" viewBox="0 0 173 200" fill="none" xmlns="http://www.w3.org/2000/svg">
<g clip-path="url(#clip0_230_8291)">
<path fill-rule="evenodd" clip-rule="evenodd" d="M166.063 75.8965C110.94 48.9993 58.8117 84.2683 24.4773 135.145C23.8862 136.018 22.7918 136.177 22.0364 135.494C21.281 134.811 21.1435 133.547 21.7346 132.675C57.028 80.3704 110.752 44.546 167.418 72.1978C168.302 72.6265 168.715 73.805 168.342 74.8299C167.971 75.8505 166.95 76.3278 166.063 75.8965Z" fill="#053F5C"/>
<path fill-rule="evenodd" clip-rule="evenodd" d="M23.7505 132.954C26.5714 131.597 30.0954 129.849 30.5003 129.664C41.4731 124.653 52.5308 121.877 64.3226 120.871C65.2796 120.788 66.1149 121.622 66.1868 122.727C66.2586 123.833 65.5369 124.797 64.5799 124.88C53.1451 125.852 42.4204 128.541 31.7771 133.403C31.1565 133.686 23.2369 137.622 21.5838 138.278C20.9068 138.552 20.4503 138.463 20.3443 138.43C19.7758 138.281 19.4611 137.913 19.2682 137.576C19.0528 137.195 18.8304 136.464 19.0328 135.491C19.2481 134.474 20.1392 132.501 20.3294 131.983C23.1792 124.143 26.9512 115.681 29.0573 107.048C31.0664 98.8158 31.5609 90.4188 27.9807 82.3054C27.5441 81.3181 27.8873 80.1061 28.742 79.6018C29.5967 79.0975 30.6461 79.4939 31.0827 80.4811C35.0837 89.553 34.6517 98.9366 32.4072 108.136C30.3126 116.718 26.6243 125.138 23.7505 132.954Z" fill="#053F5C"/>
</g>
<defs>
<clipPath id="clip0_230_8291">
<rect width="140.482" height="131.458" fill="white" transform="matrix(0.46453 -0.885558 -0.819268 -0.57341 107.699 199.784)"/>
</clipPath>
</defs>
</svg>
