<svg width="185" height="185" viewBox="0 0 185 185" fill="none" xmlns="http://www.w3.org/2000/svg">
<g clip-path="url(#clip0_230_8299)">
<path fill-rule="evenodd" clip-rule="evenodd" d="M21.6074 57.1066C36.3981 51.9461 55.0266 54.0095 73.2236 60.6018C100.411 70.4549 126.63 90.3951 137.581 111.065C137.801 111.494 137.637 112.024 137.217 112.246C136.786 112.474 136.264 112.312 136.036 111.882C125.252 91.534 99.4005 71.9442 72.6244 62.2478C54.8413 55.8015 36.6407 53.7093 22.1846 58.7604C21.7262 58.9224 21.2311 58.6804 21.0691 58.2221C20.9135 57.7738 21.1491 57.2686 21.6074 57.1066Z" fill="#053F5C"/>
<path fill-rule="evenodd" clip-rule="evenodd" d="M156.993 130.924C150.037 119.275 142.751 109.752 140.456 95.5039C140.385 95.0233 140.703 94.5714 141.184 94.5005C141.658 94.4195 142.108 94.7458 142.181 95.2182C144.709 110.896 153.417 120.743 160.908 134.191C161.31 134.919 160.859 135.349 160.743 135.443C160.573 135.585 160.259 135.754 159.82 135.568C159.734 135.531 159.575 135.435 159.373 135.268C158.992 134.94 158.273 134.209 157.919 133.913C156.891 133.068 155.847 132.253 154.819 131.408C151.879 128.991 148.921 126.614 145.794 124.455C134.105 116.362 124.599 109.669 110.06 111.958C109.577 112.037 109.135 111.713 109.056 111.23C108.983 110.758 109.31 110.308 109.782 110.235C124.822 107.863 134.702 114.649 146.793 123.015C149.956 125.208 152.959 127.613 155.928 130.053C156.282 130.349 156.637 130.636 156.993 130.924Z" fill="#053F5C"/>
</g>
<defs>
<clipPath id="clip0_230_8299">
<rect width="153.813" height="153.813" fill="white" transform="matrix(-0.222486 0.974936 0.974936 0.222486 34.2207 0)"/>
</clipPath>
</defs>
</svg>
