<svg width="343" height="343" viewBox="0 0 343 343" fill="none" xmlns="http://www.w3.org/2000/svg">
<g clip-path="url(#clip0_230_8058)">
<path fill-rule="evenodd" clip-rule="evenodd" d="M196.619 123.266C227.829 127.422 259.913 137.138 284.027 157.351C292.802 164.705 299.414 173.588 306.265 182.621C306.746 183.254 306.622 184.162 305.987 184.646C305.349 185.128 304.441 185.005 303.959 184.367C297.239 175.509 290.774 166.78 282.169 159.568C258.398 139.642 226.728 130.152 195.964 126.095L195.864 126.563C194.785 131.65 189.647 136.48 182.567 140.322C172.42 145.831 158.356 149.45 147.989 149.559C143.331 149.607 139.394 148.928 136.788 147.488C134.755 146.367 133.462 144.786 133.038 142.773C132.138 138.484 135.18 134.496 140.685 131.311C152.195 124.647 174.411 121.007 184.372 121.903C187.482 122.183 190.613 122.513 193.754 122.9C193.968 122.011 194.174 121.139 194.336 120.282C194.79 117.839 194.882 115.481 193.625 112.905C191.662 108.892 188.048 105.815 183.814 103.403C177.203 99.6439 169.069 97.5256 162.859 96.2702C128.272 89.2812 100.429 100.546 78.4856 116.225C56.3271 132.064 40.1402 152.397 29.0698 163.284C28.5015 163.845 27.5868 163.834 27.0256 163.266C26.4645 162.698 26.4725 161.781 27.0439 161.222C38.1848 150.264 54.4979 129.815 76.8065 113.874C99.3299 97.7735 127.927 86.2615 163.431 93.4328C169.9 94.74 178.36 96.9731 185.243 100.889C190.007 103.601 194.015 107.12 196.224 111.636C198.204 115.69 197.545 119.288 196.619 123.266ZM193.083 125.731L193.036 125.965C192.094 130.412 187.379 134.42 181.188 137.779C171.437 143.072 157.924 146.561 147.957 146.664C144.54 146.701 141.557 146.343 139.328 145.485C137.491 144.774 136.197 143.744 135.872 142.179C135.557 140.702 136.014 139.317 136.982 138.019C138.115 136.494 139.909 135.102 142.132 133.814C153.193 127.412 174.541 123.922 184.112 124.783C187.084 125.053 190.077 125.366 193.083 125.731Z" fill="#228BE6"/>
<path fill-rule="evenodd" clip-rule="evenodd" d="M306.6 188.4C306.863 187.824 306.981 186.945 307.096 185.997C307.372 183.74 307.346 181.104 307.384 179.86C307.411 179.06 308.081 178.437 308.878 178.461C309.678 178.487 310.304 179.155 310.277 179.955C310.229 181.478 310.257 184.992 309.788 187.546C309.535 188.916 309.104 190.038 308.558 190.672C307.63 191.753 306.2 191.81 304.431 190.457C302.338 188.854 299.159 184.908 294.913 183.782C294.142 183.579 293.681 182.782 293.887 182.014C294.092 181.24 294.884 180.78 295.657 180.985C299.705 182.061 302.959 185.328 305.259 187.377C305.696 187.766 306.261 188.167 306.6 188.4Z" fill="#228BE6"/>
</g>
<defs>
<clipPath id="clip0_230_8058">
<rect width="245.3" height="245.3" fill="white" transform="matrix(0.808639 0.588306 0.588306 -0.808639 0 198.359)"/>
</clipPath>
</defs>
</svg>
