<svg width="195" height="195" viewBox="0 0 195 195" fill="none" xmlns="http://www.w3.org/2000/svg">
<g clip-path="url(#clip0_230_8284)">
<path fill-rule="evenodd" clip-rule="evenodd" d="M188.57 70.6673C172.074 61.3546 149.462 59.8163 126.392 63.7604C91.924 69.6575 56.4462 87.767 38.9814 110.018C38.6273 110.481 38.7087 111.147 39.1615 111.502C39.6249 111.866 40.2808 111.785 40.6451 111.322C57.8417 89.4178 92.8075 71.6466 126.753 65.8477C149.298 61.9886 171.408 63.4009 187.529 72.5117C188.04 72.8027 188.681 72.621 188.972 72.1102C189.253 71.6101 189.081 70.9583 188.57 70.6673Z" fill="#053F5C"/>
<path fill-rule="evenodd" clip-rule="evenodd" d="M11.622 129.492C22.3977 117.12 33.1108 107.349 38.8971 90.8839C39.0845 90.3272 38.8029 89.7211 38.2462 89.5337C37.6991 89.3356 37.0935 89.6275 36.9056 90.1741C30.5358 108.29 18.0605 118.142 6.26189 132.54C5.62807 133.321 6.07226 133.929 6.19022 134.066C6.36207 134.271 6.69916 134.54 7.26163 134.412C7.3721 134.387 7.5816 134.306 7.85863 134.151C8.3823 133.843 9.39452 133.126 9.87908 132.85C11.284 132.065 12.701 131.32 14.1059 130.534C18.1228 128.288 22.1521 126.093 26.3373 124.195C41.9832 117.068 54.731 111.142 71.5437 116.983C72.1009 117.18 72.6965 116.889 72.8941 116.332C73.082 115.785 72.7901 115.18 72.2435 114.992C54.8529 108.944 41.6397 114.902 25.4568 122.266C21.2224 124.197 17.1332 126.416 13.0767 128.684C12.5921 128.96 12.107 129.226 11.622 129.492Z" fill="#053F5C"/>
</g>
<defs>
<clipPath id="clip0_230_8284">
<rect width="186" height="186" fill="white" transform="translate(185.803) rotate(87.3574)"/>
</clipPath>
</defs>
</svg>
