<svg width="174" height="181" viewBox="0 0 174 181" fill="none" xmlns="http://www.w3.org/2000/svg">
<g clip-path="url(#clip0_230_8295)">
<path fill-rule="evenodd" clip-rule="evenodd" d="M6.47981 117.144C38.419 64.8955 101.938 62.7536 158.947 82.8706C159.927 83.2143 160.941 82.7165 161.207 81.7558C161.472 80.7952 160.895 79.7329 159.915 79.3892C101.31 58.7055 36.1349 61.3207 3.30186 115.034C2.78858 115.869 3.08518 117.021 3.96403 117.607C4.83857 118.191 5.9648 117.984 6.47981 117.144Z" fill="#053F5C"/>
<path fill-rule="evenodd" clip-rule="evenodd" d="M158.362 80.752C155.228 81.2974 151.283 81.9375 150.839 82.0234C138.792 84.353 127.9 88.471 117.358 94.3844C116.502 94.8633 116.252 95.9868 116.798 96.8884C117.343 97.79 118.484 98.1313 119.341 97.6525C129.561 91.9147 140.123 87.9181 151.809 85.6598C152.49 85.5277 161.359 84.0945 163.12 83.6671C163.843 83.4953 164.182 83.1671 164.253 83.0814C164.653 82.6426 164.718 82.177 164.696 81.8054C164.669 81.3857 164.457 80.6906 163.752 80.0481C163.011 79.3784 161.173 78.3484 160.728 78.0523C154.011 73.5665 146.171 69.1193 139.649 63.5936C133.429 58.3244 128.402 52.0668 126.983 43.7161C126.811 42.6993 125.855 41.9505 124.854 42.0432C123.853 42.1359 123.182 43.0405 123.354 44.0572C124.942 53.3933 130.458 60.4546 137.408 66.3433C143.892 71.8356 151.638 76.2975 158.362 80.752Z" fill="#053F5C"/>
</g>
<defs>
<clipPath id="clip0_230_8295">
<rect width="137.273" height="129.822" fill="white" transform="matrix(-0.900098 -0.435687 0.384187 -0.923255 123.918 180.463)"/>
</clipPath>
</defs>
</svg>
