<svg width="337" height="220" viewBox="0 0 337 220" fill="none" xmlns="http://www.w3.org/2000/svg">
<path fill-rule="evenodd" clip-rule="evenodd" d="M154.546 185.649C193.253 206.624 237.524 222.031 281.417 219.012C297.388 217.916 312.172 213.311 327.349 208.733C328.414 208.413 329.021 207.285 328.702 206.214C328.377 205.144 327.248 204.538 326.178 204.862C311.293 209.35 296.803 213.902 281.141 214.977C237.87 217.953 194.254 202.632 156.132 181.912L156.404 181.3C159.369 174.662 157.532 164.973 152.688 154.805C145.746 140.229 132.82 124.567 121.188 115.916C115.96 112.029 110.951 109.559 106.82 109.043C103.599 108.638 100.836 109.362 98.7011 111.29C94.1547 115.399 94.3144 122.41 97.9185 130.54C105.451 147.543 127.576 169.934 139.576 177.116C143.323 179.357 147.135 181.561 151.005 183.706C150.516 184.888 150.031 186.043 149.509 187.145C148.013 190.281 146.177 193.023 142.637 194.902C137.116 197.825 130.499 198.33 123.727 197.574C113.16 196.387 102.22 192.091 94.1654 188.402C49.3087 167.853 27.0934 132.211 15.1792 96.4313C3.15318 60.2948 1.5774 23.9878 -1.98408 2.57101C-2.16508 1.46902 -3.2085 0.729046 -4.31049 0.910048C-5.41247 1.09105 -6.15777 2.13447 -5.97145 3.23646C-2.38867 24.7917 -0.765021 61.3329 11.3462 97.709C23.5691 134.442 46.434 170.983 92.4778 192.08C100.868 195.924 112.271 200.359 123.275 201.594C130.893 202.445 138.319 201.764 144.532 198.474C150.106 195.519 152.32 190.909 154.546 185.649ZM152.576 179.953L152.714 179.65C155.307 173.847 153.273 165.436 149.036 156.545C142.365 142.539 129.956 127.479 118.771 119.163C114.938 116.31 111.27 114.26 108.044 113.398C105.382 112.69 103.072 112.791 101.416 114.292C99.8456 115.703 99.2227 117.646 99.2494 119.908C99.276 122.565 100.16 125.615 101.613 128.9C108.853 145.238 130.121 166.745 141.652 173.645C145.235 175.785 148.876 177.893 152.576 179.953Z" fill="black"/>
<path fill-rule="evenodd" clip-rule="evenodd" d="M332.481 202.472C332.305 203.34 331.714 204.432 331.065 205.597C329.521 208.376 327.322 211.336 326.343 212.774C325.714 213.7 325.959 214.956 326.88 215.584C327.807 216.213 329.063 215.973 329.691 215.047C330.889 213.285 333.812 209.335 335.382 206.061C336.223 204.304 336.66 202.68 336.564 201.514C336.404 199.529 334.834 198.288 331.719 198.363C328.036 198.453 321.195 200.3 315.466 198.081C314.428 197.676 313.252 198.198 312.853 199.236C312.448 200.279 312.964 201.45 314.008 201.855C319.47 203.968 325.837 202.952 330.122 202.526C330.937 202.446 331.906 202.457 332.481 202.472Z" fill="black"/>
</svg>
