<svg width="257" height="40" viewBox="0 0 257 40" fill="none" xmlns="http://www.w3.org/2000/svg">
<path fill-rule="evenodd" clip-rule="evenodd" d="M6.69406 22.2964C5.01405 22.2682 3.33653 22.2307 1.65947 22.186C1.33181 22.177 1.05886 22.4361 1.05024 22.7644C1.04163 23.0926 1.30065 23.3664 1.62831 23.3753C3.13794 23.4142 4.64788 23.4482 6.15693 23.4775C6.24111 23.5353 6.41022 23.6199 6.69986 23.6693C15.7256 25.1511 25.4819 24.0298 34.7124 23.3992C43.3657 23.2133 52.0232 22.8989 60.683 22.5156C59.6512 22.6144 58.6197 22.7108 57.5876 22.8024C57.3729 22.8221 56.8164 22.8749 56.74 22.8939C56.3027 23.0114 56.2909 23.3871 56.2925 23.4825C56.2933 23.5302 56.3273 24.0566 56.9185 24.0728C63.2687 24.2407 69.618 23.6748 75.9397 23.1618C78.2912 22.9707 80.6404 22.7745 82.9911 22.5738C83.8085 22.5018 85.9355 22.4012 86.2289 22.346C86.5443 22.285 86.6669 22.0856 86.714 21.9313C91.8142 21.6218 96.9198 21.3509 102.027 21.1157C103.027 21.1149 104.025 21.1165 105.024 21.118C115.905 21.1453 126.784 21.2129 137.665 21.1924C131.603 21.4717 125.526 21.7738 119.473 22.1919C118.233 22.2774 116.995 22.3965 115.756 22.4916C115.079 22.5415 113.328 22.5659 113.081 22.6455C112.714 22.7675 112.656 23.0498 112.646 23.1897C112.64 23.2752 112.668 23.751 113.285 23.8689C124.736 26.0649 136.42 26.5316 148.033 27.1367C151.088 27.2953 154.142 27.4657 157.195 27.6455C149.9 27.7701 142.531 27.504 135.248 27.3268C135.182 27.2654 135.088 27.207 134.952 27.1674C134.752 27.107 134.133 27.0295 133.006 26.9459C132.764 26.9281 132.544 27.0595 132.437 27.2624C130.707 27.2286 128.981 27.2022 127.263 27.1907C121.638 27.1522 116.012 27.3139 110.388 27.3017L109.115 27.2874L108.849 27.2849C107.874 27.2681 106.682 27.2423 105.889 27.2253C105.432 27.2129 104.242 27.2087 104.078 27.2125C103.581 27.2286 103.496 27.6878 103.493 27.7091C103.491 27.7209 103.498 28.3909 104.177 28.4078C104.631 28.42 106.347 28.4434 108.751 28.4724C109.355 28.4822 109.885 28.4897 110.201 28.4907L110.445 28.4919C118.134 28.5735 130.456 28.659 133.946 28.4853C145.297 28.7402 156.879 29.2814 168.089 28.3002C168.457 28.2664 168.618 28.148 168.65 28.1215C168.824 27.9681 168.86 27.7941 168.853 27.6435C168.849 27.5479 168.801 27.1613 168.336 27.0721C168.009 27.0084 165.652 26.9634 164.745 26.9081C159.196 26.5695 153.646 26.238 148.094 25.9492C138.083 25.4269 128.019 25.0132 118.097 23.4911C118.583 23.4505 119.068 23.4123 119.555 23.3789C125.692 22.9543 131.854 22.648 138 22.3669C157.085 21.4934 176.614 22.6639 195.612 21.0461C196.001 21.0137 196.175 20.8961 196.209 20.8697C196.393 20.7146 196.429 20.5334 196.422 20.3804C196.417 20.2872 196.365 19.8955 195.891 19.8082C195.5 19.7357 192.683 19.6924 191.598 19.6329C187.267 19.3956 182.933 19.1556 178.597 19.0205C171.441 18.7989 164.269 18.6668 157.098 18.6349C156.486 18.4959 155.852 18.3675 155.197 18.2496C160.032 18.1663 164.865 18.1234 169.696 18.1351C189.499 18.1769 209.296 18.54 229.09 19.0483C237.288 19.2599 245.603 19.9293 253.804 19.7932C254.094 19.7878 254.738 19.8478 255.055 19.8418C255.236 19.839 255.369 19.8069 255.432 19.7824C255.696 19.6753 255.782 19.483 255.811 19.3323C255.835 19.2147 255.88 18.8292 255.392 18.6123C244.888 13.946 228.203 15.4964 217.276 15.023C172.654 13.0907 128.002 14.2517 83.4209 16.6157C65.5966 17.5599 47.8174 18.5188 30.0299 20.0277C23.7175 20.5626 17.3969 20.9947 11.1168 21.8415C10.2971 21.9537 8.56408 22.0675 7.45378 22.1875C7.15487 22.2209 6.89468 22.2591 6.69406 22.2964ZM252.04 18.6207C241.675 15.35 227.079 16.6377 217.225 16.2112C172.641 14.2813 128.027 15.4399 83.4839 17.8015C65.6723 18.7465 47.9058 19.7039 30.1303 21.2136C25.6085 21.5955 21.0819 21.9271 16.5698 22.3955C22.5956 22.407 28.6237 22.3401 34.6604 22.2117C35.9166 22.1248 37.1642 22.0468 38.3988 21.9872C53.5614 21.2478 68.758 20.5297 83.9541 20.1689C88.9807 19.9 94.0076 19.624 99.0386 19.3506C108.777 18.4855 122.071 17.2604 134.301 17.0517C138.508 16.9809 142.59 17.0308 146.361 17.2587C154.146 17.0461 161.924 16.9284 169.698 16.9463C189.51 16.9863 209.317 17.3524 229.122 17.8614C236.722 18.0563 244.42 18.6484 252.04 18.6207ZM156.98 19.8235C152.386 19.8054 147.792 19.8302 143.206 19.8983C141.164 19.9305 139.123 19.9651 137.08 20.0044C138.196 20.0038 139.311 20.0009 140.426 19.9955C145.66 19.9781 150.907 19.9687 156.141 19.8512C156.401 19.8439 156.749 19.8518 157.14 19.8623L156.987 19.8264L156.98 19.8235ZM185.282 20.4869C183.042 20.3778 180.802 20.2782 178.561 20.2096C172.744 20.0303 166.917 19.9075 161.089 19.8514C161.229 19.9413 161.303 20.027 161.337 20.0816C161.436 20.2356 161.452 20.3867 161.429 20.5235C161.415 20.6084 161.383 20.7088 161.311 20.8043C169.316 20.7987 177.329 20.8103 185.282 20.4869ZM149.094 18.6454C148.216 18.5681 147.318 18.5014 146.4 18.4454C141.849 18.5706 137.297 18.7243 132.75 18.9021C136.228 18.8279 139.708 18.7633 143.187 18.7105C145.155 18.6808 147.124 18.6583 149.094 18.6454Z" fill="#228BE6"/>
</svg>
