<svg width="1600" height="872" viewBox="0 0 1600 872" fill="none" xmlns="http://www.w3.org/2000/svg">
<rect width="1600" height="872" transform="matrix(-1 0 0 1 1600 0)" fill="#33AAFF"/>
<g clip-path="url(#clip0_1433_7536)">
<path fill-rule="evenodd" clip-rule="evenodd" d="M970.416 200.021C970.351 199.655 970.284 199.288 970.215 198.921C969.506 195.184 968.816 191.458 968.372 187.676C968.264 186.76 968.086 185.005 967.531 183.772C967.134 182.89 966.549 182.222 965.846 181.846C965.399 181.606 964.652 181.386 963.791 181.958C963.646 182.054 963.424 182.238 963.194 182.511C962.822 182.953 962.26 183.82 962.189 183.945C961.147 185.76 960.158 187.5 959.268 189.395C958.448 191.138 957.531 192.831 956.734 194.588C955.542 197.216 954.542 199.85 953.824 202.65C953.558 203.69 954.186 204.75 955.225 205.016C956.264 205.282 957.324 204.656 957.591 203.616C958.252 201.037 959.178 198.614 960.276 196.194C961.065 194.453 961.975 192.776 962.787 191.048C963.315 189.924 963.881 188.858 964.473 187.797L964.509 188.13C964.964 192.003 965.668 195.819 966.394 199.646C966.666 201.078 966.891 202.513 967.185 203.941C967.182 204.095 967.171 204.798 967.216 205.074C967.29 205.533 967.471 205.888 967.668 206.14C968.168 206.783 968.864 207.173 969.935 206.862C970.737 206.629 971.57 205.974 972.256 204.973C973.199 203.598 973.959 201.44 974.437 200.537C977.464 194.824 980.049 188.826 983.503 183.348C984.075 182.441 983.803 181.239 982.896 180.667C981.988 180.095 980.785 180.367 980.214 181.275C976.708 186.835 974.073 192.917 971 198.717C970.837 199.026 970.642 199.491 970.416 200.021Z" fill="#228BE6"/>
<path fill-rule="evenodd" clip-rule="evenodd" d="M999.67 188.239C997.535 187.435 995.44 186.569 993.118 186.774C990.689 186.991 988.586 188.32 986.823 190.216C984.575 192.634 982.886 195.993 981.64 198.355C980.995 199.579 979.951 201.181 979.294 202.791C978.73 204.176 978.451 205.578 978.649 206.84C978.96 208.823 980.631 210.191 982.95 210.744C985.629 211.384 989.083 210.917 990.453 210.186C991.4 209.681 991.759 208.502 991.253 207.555C990.748 206.608 989.569 206.25 988.623 206.755C987.754 207.218 985.552 207.368 983.852 206.962C983.473 206.871 983.119 206.752 982.827 206.578C982.676 206.488 982.518 206.407 982.491 206.238C982.361 205.409 982.759 204.496 983.192 203.595C983.795 202.339 984.573 201.132 985.081 200.169C986.195 198.056 987.661 195.026 989.671 192.863C990.749 191.703 991.976 190.781 993.463 190.649C995.188 190.496 996.711 191.281 998.299 191.879C999.303 192.257 1000.43 191.749 1000.8 190.744C1001.18 189.74 1000.67 188.617 999.67 188.239Z" fill="#228BE6"/>
<path fill-rule="evenodd" clip-rule="evenodd" d="M993.602 196.497C991.671 196.264 989.629 195.984 987.756 195.457C986.723 195.166 985.648 195.768 985.357 196.801C985.066 197.834 985.668 198.909 986.701 199.2C988.763 199.78 991.009 200.102 993.134 200.359C994.2 200.487 995.17 199.727 995.298 198.662C995.427 197.596 994.667 196.627 993.602 196.497Z" fill="#228BE6"/>
<path fill-rule="evenodd" clip-rule="evenodd" d="M1012.13 210.963C1011.97 208.741 1011.73 206.495 1011.33 204.318C1011.3 204.14 1010.76 202.141 1010.28 201.189C1009.95 200.547 1009.52 200.169 1009.23 200.002C1008.39 199.517 1007.6 199.601 1006.89 200.191C1006.2 200.756 1005.61 201.437 1005.08 202.182C1005.47 199.151 1006.01 196.13 1007.05 193.288C1007.14 193.054 1007.16 192.931 1007.17 192.909C1007.29 192.268 1007.1 191.882 1007.03 191.738C1006.72 191.03 1006.19 190.734 1005.64 190.625C1005.57 190.611 1004.11 190.311 1003.47 191.768C1003.42 191.885 1003.08 192.742 1002.93 193.064C1002.8 193.345 1002.75 193.64 1002.75 193.929C1001.61 197.84 1001.17 201.99 1000.71 206.022C1000.62 206.894 1000.43 207.73 1000.11 208.548C1000.02 208.787 999.717 209.259 999.603 209.516C999.411 209.951 999.386 210.316 999.392 210.516C999.425 211.559 1000.01 212.08 1000.72 212.323C1001.02 212.428 1001.64 212.616 1002.47 212.107C1004.31 210.965 1005.52 209.108 1006.61 207.152C1006.94 206.573 1007.25 205.984 1007.58 205.422C1007.99 207.826 1008.21 210.309 1008.35 212.735C1008.36 213.002 1008.65 215.527 1008.85 216.018C1009.35 217.247 1010.38 217.321 1010.86 217.28C1011.61 217.217 1012.46 216.801 1013.22 216.045C1014.21 215.065 1015.15 213.422 1015.57 212.794C1018.44 208.565 1021.38 204.112 1023.34 199.388C1023.75 198.397 1023.28 197.259 1022.29 196.848C1021.3 196.436 1020.16 196.908 1019.75 197.899C1017.89 202.385 1015.07 206.6 1012.35 210.615C1012.29 210.708 1012.22 210.826 1012.13 210.963Z" fill="#228BE6"/>
<path fill-rule="evenodd" clip-rule="evenodd" d="M1028.45 201.444C1027.05 204.628 1025.66 207.788 1024.01 210.909C1023.5 211.857 1023.86 213.035 1024.81 213.539C1025.76 214.042 1026.94 213.682 1027.44 212.733C1029.78 208.332 1031.59 203.858 1033.65 199.342C1034.45 197.597 1032.83 196.773 1032.73 196.725C1032.51 196.619 1031.27 196.082 1030.34 197.315C1030.28 197.39 1029.95 197.97 1029.81 198.187C1029.48 198.683 1029.14 199.147 1028.77 199.613C1028.34 200.149 1028.25 200.84 1028.45 201.444Z" fill="#228BE6"/>
<path fill-rule="evenodd" clip-rule="evenodd" d="M1020.89 220.73C1021.4 220.356 1021.72 219.739 1021.68 219.059C1021.62 217.987 1020.7 217.166 1019.63 217.224C1018.64 217.278 1018.09 217.808 1017.64 218.619C1017.12 219.558 1017.46 220.743 1018.39 221.262C1019.25 221.739 1020.32 221.495 1020.89 220.73Z" fill="#228BE6"/>
<path fill-rule="evenodd" clip-rule="evenodd" d="M969.232 229.981C969.314 229.524 969.376 229.161 969.387 229.081C969.876 225.282 970.214 221.429 970.322 217.599C970.352 216.526 969.506 215.631 968.433 215.601C967.36 215.571 966.465 216.417 966.435 217.49C966.33 221.19 966.002 224.913 965.53 228.585C965.494 228.865 964.933 231.182 964.914 232.301C964.898 233.315 965.312 233.976 965.613 234.266C966.091 234.726 967.064 235.13 968.388 234.707C970.116 234.156 973.515 231.816 974.078 231.427C975.112 230.71 976.127 229.907 977.1 229.117C978.947 227.617 980.597 225.929 982.227 224.203C982.964 223.422 982.928 222.191 982.148 221.454C981.367 220.718 980.135 220.753 979.399 221.533C977.888 223.134 976.362 224.707 974.65 226.097C973.751 226.826 972.815 227.569 971.861 228.232C971.575 228.43 970.414 229.264 969.232 229.981Z" fill="#228BE6"/>
</g>
<path d="M1107.96 333.182H1111.11L1118.53 351.293H1118.78L1126.2 333.182H1129.35V355H1126.88V338.423H1126.66L1119.85 355H1117.46L1110.64 338.423H1110.43V355H1107.96V333.182ZM1140.95 355.341C1139.48 355.341 1138.18 354.989 1137.07 354.286C1135.96 353.583 1135.09 352.599 1134.47 351.335C1133.85 350.071 1133.54 348.594 1133.54 346.903C1133.54 345.199 1133.85 343.711 1134.47 342.44C1135.09 341.168 1135.96 340.181 1137.07 339.478C1138.18 338.775 1139.48 338.423 1140.95 338.423C1142.43 338.423 1143.72 338.775 1144.83 339.478C1145.95 340.181 1146.81 341.168 1147.43 342.44C1148.06 343.711 1148.37 345.199 1148.37 346.903C1148.37 348.594 1148.06 350.071 1147.43 351.335C1146.81 352.599 1145.95 353.583 1144.83 354.286C1143.72 354.989 1142.43 355.341 1140.95 355.341ZM1140.95 353.082C1142.08 353.082 1143 352.795 1143.72 352.219C1144.45 351.644 1144.98 350.888 1145.33 349.95C1145.68 349.013 1145.85 347.997 1145.85 346.903C1145.85 345.81 1145.68 344.79 1145.33 343.846C1144.98 342.901 1144.45 342.138 1143.72 341.555C1143 340.973 1142.08 340.682 1140.95 340.682C1139.83 340.682 1138.91 340.973 1138.18 341.555C1137.46 342.138 1136.92 342.901 1136.58 343.846C1136.23 344.79 1136.05 345.81 1136.05 346.903C1136.05 347.997 1136.23 349.013 1136.58 349.95C1136.92 350.888 1137.46 351.644 1138.18 352.219C1138.91 352.795 1139.83 353.082 1140.95 353.082ZM1154.72 345.156V355H1152.21V338.636H1154.64V341.193H1154.85C1155.23 340.362 1155.81 339.695 1156.6 339.19C1157.38 338.679 1158.39 338.423 1159.62 338.423C1160.73 338.423 1161.7 338.651 1162.53 339.105C1163.36 339.553 1164.01 340.234 1164.47 341.151C1164.93 342.06 1165.16 343.21 1165.16 344.602V355H1162.65V344.773C1162.65 343.487 1162.31 342.486 1161.65 341.768C1160.98 341.044 1160.06 340.682 1158.9 340.682C1158.09 340.682 1157.38 340.856 1156.74 341.204C1156.12 341.552 1155.63 342.06 1155.26 342.727C1154.9 343.395 1154.72 344.205 1154.72 345.156ZM1169.76 355V338.636H1172.27V355H1169.76ZM1171.03 335.909C1170.54 335.909 1170.12 335.742 1169.77 335.408C1169.42 335.075 1169.24 334.673 1169.24 334.205C1169.24 333.736 1169.42 333.335 1169.77 333.001C1170.12 332.667 1170.54 332.5 1171.03 332.5C1171.52 332.5 1171.94 332.667 1172.29 333.001C1172.65 333.335 1172.82 333.736 1172.82 334.205C1172.82 334.673 1172.65 335.075 1172.29 335.408C1171.94 335.742 1171.52 335.909 1171.03 335.909ZM1183.99 338.636V340.767H1175.51V338.636H1183.99ZM1177.98 334.716H1180.5V350.312C1180.5 351.023 1180.6 351.555 1180.81 351.911C1181.02 352.259 1181.29 352.493 1181.62 352.614C1181.95 352.727 1182.3 352.784 1182.67 352.784C1182.95 352.784 1183.17 352.77 1183.35 352.741C1183.53 352.706 1183.67 352.678 1183.78 352.656L1184.29 354.915C1184.12 354.979 1183.88 355.043 1183.58 355.107C1183.27 355.178 1182.88 355.213 1182.41 355.213C1181.7 355.213 1181.01 355.06 1180.33 354.755C1179.65 354.45 1179.09 353.984 1178.64 353.359C1178.2 352.734 1177.98 351.946 1177.98 350.994V334.716ZM1194.24 355.341C1192.77 355.341 1191.47 354.989 1190.36 354.286C1189.25 353.583 1188.38 352.599 1187.76 351.335C1187.14 350.071 1186.83 348.594 1186.83 346.903C1186.83 345.199 1187.14 343.711 1187.76 342.44C1188.38 341.168 1189.25 340.181 1190.36 339.478C1191.47 338.775 1192.77 338.423 1194.24 338.423C1195.72 338.423 1197.01 338.775 1198.12 339.478C1199.24 340.181 1200.1 341.168 1200.72 342.44C1201.35 343.711 1201.66 345.199 1201.66 346.903C1201.66 348.594 1201.35 350.071 1200.72 351.335C1200.1 352.599 1199.24 353.583 1198.12 354.286C1197.01 354.989 1195.72 355.341 1194.24 355.341ZM1194.24 353.082C1195.37 353.082 1196.29 352.795 1197.01 352.219C1197.74 351.644 1198.28 350.888 1198.62 349.95C1198.97 349.013 1199.15 347.997 1199.15 346.903C1199.15 345.81 1198.97 344.79 1198.62 343.846C1198.28 342.901 1197.74 342.138 1197.01 341.555C1196.29 340.973 1195.37 340.682 1194.24 340.682C1193.12 340.682 1192.2 340.973 1191.47 341.555C1190.75 342.138 1190.21 342.901 1189.87 343.846C1189.52 344.79 1189.34 345.81 1189.34 346.903C1189.34 347.997 1189.52 349.013 1189.87 349.95C1190.21 350.888 1190.75 351.644 1191.47 352.219C1192.2 352.795 1193.12 353.082 1194.24 353.082ZM1205.5 355V338.636H1207.93V341.108H1208.1C1208.4 340.298 1208.93 339.641 1209.72 339.137C1210.5 338.633 1211.38 338.381 1212.36 338.381C1212.54 338.381 1212.77 338.384 1213.05 338.391C1213.33 338.398 1213.54 338.409 1213.68 338.423V340.98C1213.59 340.959 1213.4 340.927 1213.09 340.884C1212.8 340.835 1212.48 340.81 1212.15 340.81C1211.35 340.81 1210.64 340.977 1210.01 341.31C1209.4 341.637 1208.91 342.092 1208.54 342.674C1208.19 343.249 1208.01 343.906 1208.01 344.645V355H1205.5ZM1216.66 355V338.636H1219.17V355H1216.66ZM1217.94 335.909C1217.45 335.909 1217.03 335.742 1216.67 335.408C1216.32 335.075 1216.15 334.673 1216.15 334.205C1216.15 333.736 1216.32 333.335 1216.67 333.001C1217.03 332.667 1217.45 332.5 1217.94 332.5C1218.43 332.5 1218.85 332.667 1219.2 333.001C1219.55 333.335 1219.73 333.736 1219.73 334.205C1219.73 334.673 1219.55 335.075 1219.2 335.408C1218.85 335.742 1218.43 335.909 1217.94 335.909ZM1226.29 345.156V355H1223.78V338.636H1226.21V341.193H1226.42C1226.8 340.362 1227.39 339.695 1228.17 339.19C1228.95 338.679 1229.96 338.423 1231.19 338.423C1232.3 338.423 1233.27 338.651 1234.1 339.105C1234.93 339.553 1235.58 340.234 1236.04 341.151C1236.5 342.06 1236.73 343.21 1236.73 344.602V355H1234.22V344.773C1234.22 343.487 1233.89 342.486 1233.22 341.768C1232.55 341.044 1231.63 340.682 1230.47 340.682C1229.67 340.682 1228.95 340.856 1228.32 341.204C1227.69 341.552 1227.2 342.06 1226.84 342.727C1226.47 343.395 1226.29 344.205 1226.29 345.156ZM1247.93 361.477C1246.72 361.477 1245.67 361.321 1244.8 361.009C1243.93 360.703 1243.2 360.298 1242.62 359.794C1242.04 359.297 1241.58 358.764 1241.24 358.196L1243.25 356.79C1243.47 357.088 1243.76 357.429 1244.11 357.812C1244.46 358.203 1244.93 358.54 1245.54 358.825C1246.15 359.116 1246.95 359.261 1247.93 359.261C1249.25 359.261 1250.34 358.942 1251.2 358.303C1252.06 357.663 1252.49 356.662 1252.49 355.298V351.974H1252.28C1252.09 352.273 1251.83 352.642 1251.49 353.082C1251.16 353.516 1250.67 353.903 1250.04 354.244C1249.42 354.577 1248.57 354.744 1247.51 354.744C1246.19 354.744 1245 354.432 1243.95 353.807C1242.9 353.182 1242.08 352.273 1241.47 351.08C1240.86 349.886 1240.56 348.437 1240.56 346.733C1240.56 345.057 1240.86 343.597 1241.44 342.354C1242.03 341.104 1242.85 340.138 1243.91 339.457C1244.96 338.768 1246.17 338.423 1247.55 338.423C1248.61 338.423 1249.46 338.601 1250.08 338.956C1250.72 339.304 1251.2 339.702 1251.53 340.149C1251.87 340.589 1252.14 340.952 1252.32 341.236H1252.58V338.636H1255.01V355.469C1255.01 356.875 1254.69 358.018 1254.05 358.899C1253.42 359.787 1252.56 360.437 1251.49 360.849C1250.43 361.268 1249.24 361.477 1247.93 361.477ZM1247.85 352.486C1248.86 352.486 1249.71 352.255 1250.4 351.793C1251.1 351.332 1251.63 350.668 1251.99 349.801C1252.35 348.935 1252.53 347.898 1252.53 346.69C1252.53 345.511 1252.36 344.471 1252 343.569C1251.65 342.667 1251.12 341.96 1250.43 341.449C1249.73 340.937 1248.87 340.682 1247.85 340.682C1246.78 340.682 1245.89 340.952 1245.18 341.491C1244.48 342.031 1243.95 342.756 1243.6 343.665C1243.25 344.574 1243.07 345.582 1243.07 346.69C1243.07 347.827 1243.25 348.832 1243.61 349.705C1243.97 350.572 1244.5 351.254 1245.21 351.751C1245.92 352.241 1246.8 352.486 1247.85 352.486ZM1268.39 355V333.182H1281.47V335.526H1271.03V342.898H1280.49V345.241H1271.03V355H1268.39ZM1285.65 355V338.636H1288.17V355H1285.65ZM1286.93 335.909C1286.44 335.909 1286.02 335.742 1285.66 335.408C1285.32 335.075 1285.14 334.673 1285.14 334.205C1285.14 333.736 1285.32 333.335 1285.66 333.001C1286.02 332.667 1286.44 332.5 1286.93 332.5C1287.42 332.5 1287.84 332.667 1288.19 333.001C1288.54 333.335 1288.72 333.736 1288.72 334.205C1288.72 334.673 1288.54 335.075 1288.19 335.408C1287.84 335.742 1287.42 335.909 1286.93 335.909ZM1299.63 355.341C1298.06 355.341 1296.7 354.993 1295.55 354.297C1294.42 353.594 1293.54 352.614 1292.92 351.357C1292.31 350.092 1292.01 348.622 1292.01 346.946C1292.01 345.27 1292.31 343.793 1292.92 342.514C1293.54 341.229 1294.4 340.227 1295.5 339.51C1296.61 338.786 1297.9 338.423 1299.38 338.423C1300.23 338.423 1301.07 338.565 1301.9 338.849C1302.73 339.134 1303.49 339.595 1304.17 340.234C1304.85 340.866 1305.4 341.705 1305.8 342.749C1306.21 343.793 1306.41 345.078 1306.41 346.605V347.67H1293.8V345.497H1303.85C1303.85 344.574 1303.67 343.75 1303.3 343.026C1302.94 342.301 1302.42 341.729 1301.74 341.31C1301.08 340.891 1300.29 340.682 1299.38 340.682C1298.38 340.682 1297.51 340.93 1296.78 341.428C1296.05 341.918 1295.5 342.557 1295.11 343.345C1294.72 344.134 1294.52 344.979 1294.52 345.881V347.33C1294.52 348.565 1294.73 349.613 1295.16 350.472C1295.59 351.325 1296.19 351.974 1296.96 352.422C1297.73 352.862 1298.62 353.082 1299.63 353.082C1300.29 353.082 1300.89 352.99 1301.42 352.805C1301.96 352.614 1302.43 352.33 1302.82 351.953C1303.21 351.57 1303.51 351.094 1303.72 350.526L1306.15 351.207C1305.9 352.031 1305.47 352.756 1304.86 353.381C1304.26 353.999 1303.52 354.482 1302.63 354.83C1301.74 355.17 1300.74 355.341 1299.63 355.341ZM1312.75 333.182V355H1310.23V333.182H1312.75ZM1323.53 355.341C1322.17 355.341 1320.96 354.996 1319.92 354.308C1318.88 353.612 1318.06 352.631 1317.47 351.367C1316.88 350.096 1316.59 348.594 1316.59 346.861C1316.59 345.142 1316.88 343.651 1317.47 342.386C1318.06 341.122 1318.88 340.146 1319.93 339.457C1320.98 338.768 1322.2 338.423 1323.57 338.423C1324.64 338.423 1325.48 338.601 1326.1 338.956C1326.72 339.304 1327.2 339.702 1327.53 340.149C1327.86 340.589 1328.12 340.952 1328.3 341.236H1328.52V333.182H1331.03V355H1328.6V352.486H1328.3C1328.12 352.784 1327.86 353.161 1327.52 353.615C1327.18 354.062 1326.69 354.464 1326.06 354.819C1325.42 355.167 1324.58 355.341 1323.53 355.341ZM1323.87 353.082C1324.88 353.082 1325.73 352.82 1326.43 352.294C1327.13 351.761 1327.65 351.026 1328.02 350.089C1328.38 349.144 1328.56 348.054 1328.56 346.818C1328.56 345.597 1328.38 344.528 1328.03 343.612C1327.67 342.688 1327.15 341.971 1326.45 341.46C1325.75 340.941 1324.9 340.682 1323.87 340.682C1322.81 340.682 1321.92 340.955 1321.21 341.502C1320.51 342.042 1319.98 342.777 1319.62 343.707C1319.27 344.631 1319.1 345.668 1319.1 346.818C1319.1 347.983 1319.28 349.041 1319.63 349.993C1319.99 350.937 1320.53 351.69 1321.23 352.251C1321.94 352.805 1322.82 353.082 1323.87 353.082ZM1135.91 374.636C1135.79 373.557 1135.27 372.719 1134.36 372.122C1133.45 371.526 1132.34 371.227 1131.01 371.227C1130.05 371.227 1129.2 371.384 1128.48 371.696C1127.76 372.009 1127.2 372.438 1126.8 372.985C1126.4 373.532 1126.2 374.153 1126.2 374.849C1126.2 375.432 1126.34 375.933 1126.61 376.352C1126.9 376.763 1127.26 377.108 1127.7 377.385C1128.14 377.655 1128.6 377.879 1129.09 378.056C1129.57 378.227 1130.01 378.365 1130.42 378.472L1132.63 379.068C1133.2 379.217 1133.83 379.423 1134.53 379.686C1135.23 379.949 1135.9 380.308 1136.54 380.762C1137.19 381.21 1137.72 381.785 1138.14 382.488C1138.56 383.191 1138.77 384.054 1138.77 385.077C1138.77 386.256 1138.46 387.321 1137.84 388.273C1137.23 389.224 1136.34 389.981 1135.16 390.542C1133.99 391.103 1132.56 391.384 1130.89 391.384C1129.32 391.384 1127.97 391.131 1126.83 390.627C1125.69 390.123 1124.8 389.42 1124.14 388.518C1123.5 387.616 1123.13 386.568 1123.05 385.375H1125.77C1125.84 386.199 1126.12 386.881 1126.6 387.42C1127.09 387.953 1127.71 388.351 1128.46 388.614C1129.21 388.869 1130.02 388.997 1130.89 388.997C1131.89 388.997 1132.8 388.834 1133.6 388.507C1134.41 388.173 1135.04 387.712 1135.51 387.122C1135.98 386.526 1136.21 385.83 1136.21 385.034C1136.21 384.31 1136.01 383.72 1135.61 383.266C1135.2 382.811 1134.67 382.442 1134.01 382.158C1133.35 381.874 1132.63 381.625 1131.87 381.412L1129.18 380.645C1127.48 380.155 1126.13 379.455 1125.13 378.546C1124.14 377.637 1123.64 376.447 1123.64 374.977C1123.64 373.756 1123.97 372.69 1124.63 371.781C1125.3 370.865 1126.2 370.155 1127.32 369.651C1128.45 369.139 1129.71 368.884 1131.1 368.884C1132.51 368.884 1133.76 369.136 1134.85 369.64C1135.94 370.137 1136.81 370.819 1137.45 371.685C1138.1 372.552 1138.44 373.536 1138.47 374.636H1135.91ZM1149.63 391.341C1148.06 391.341 1146.7 390.993 1145.55 390.297C1144.42 389.594 1143.54 388.614 1142.92 387.357C1142.31 386.092 1142.01 384.622 1142.01 382.946C1142.01 381.27 1142.31 379.793 1142.92 378.514C1143.54 377.229 1144.4 376.227 1145.5 375.51C1146.61 374.786 1147.9 374.423 1149.38 374.423C1150.23 374.423 1151.07 374.565 1151.9 374.849C1152.73 375.134 1153.49 375.595 1154.17 376.234C1154.85 376.866 1155.4 377.705 1155.8 378.749C1156.21 379.793 1156.41 381.078 1156.41 382.605V383.67H1143.8V381.497H1153.85C1153.85 380.574 1153.67 379.75 1153.3 379.026C1152.94 378.301 1152.42 377.729 1151.74 377.31C1151.08 376.891 1150.29 376.682 1149.38 376.682C1148.38 376.682 1147.51 376.93 1146.78 377.428C1146.05 377.918 1145.5 378.557 1145.11 379.345C1144.72 380.134 1144.52 380.979 1144.52 381.881V383.33C1144.52 384.565 1144.73 385.613 1145.16 386.472C1145.59 387.325 1146.19 387.974 1146.96 388.422C1147.73 388.862 1148.62 389.082 1149.63 389.082C1150.29 389.082 1150.89 388.99 1151.42 388.805C1151.96 388.614 1152.43 388.33 1152.82 387.953C1153.21 387.57 1153.51 387.094 1153.72 386.526L1156.15 387.207C1155.9 388.031 1155.47 388.756 1154.86 389.381C1154.26 389.999 1153.52 390.482 1152.63 390.83C1151.74 391.17 1150.74 391.341 1149.63 391.341ZM1160.23 391V374.636H1162.66V377.108H1162.83C1163.13 376.298 1163.67 375.641 1164.45 375.137C1165.23 374.633 1166.11 374.381 1167.09 374.381C1167.28 374.381 1167.51 374.384 1167.79 374.391C1168.06 374.398 1168.27 374.409 1168.42 374.423V376.98C1168.33 376.959 1168.14 376.927 1167.83 376.884C1167.53 376.835 1167.22 376.81 1166.88 376.81C1166.09 376.81 1165.38 376.977 1164.75 377.31C1164.13 377.637 1163.64 378.092 1163.28 378.674C1162.93 379.249 1162.75 379.906 1162.75 380.645V391H1160.23ZM1185.27 374.636L1179.22 391H1176.67L1170.62 374.636H1173.34L1177.86 387.676H1178.03L1182.55 374.636H1185.27ZM1188.59 391V374.636H1191.11V391H1188.59ZM1189.87 371.909C1189.38 371.909 1188.96 371.742 1188.6 371.408C1188.26 371.075 1188.08 370.673 1188.08 370.205C1188.08 369.736 1188.26 369.335 1188.6 369.001C1188.96 368.667 1189.38 368.5 1189.87 368.5C1190.36 368.5 1190.78 368.667 1191.13 369.001C1191.48 369.335 1191.66 369.736 1191.66 370.205C1191.66 370.673 1191.48 371.075 1191.13 371.408C1190.78 371.742 1190.36 371.909 1189.87 371.909ZM1202.36 391.341C1200.83 391.341 1199.5 390.979 1198.4 390.254C1197.29 389.53 1196.44 388.532 1195.84 387.261C1195.24 385.989 1194.95 384.537 1194.95 382.903C1194.95 381.241 1195.25 379.775 1195.86 378.504C1196.48 377.225 1197.34 376.227 1198.44 375.51C1199.55 374.786 1200.84 374.423 1202.32 374.423C1203.47 374.423 1204.5 374.636 1205.43 375.062C1206.35 375.489 1207.11 376.085 1207.7 376.852C1208.29 377.619 1208.65 378.514 1208.79 379.537H1206.28C1206.09 378.791 1205.66 378.131 1205 377.555C1204.35 376.973 1203.47 376.682 1202.36 376.682C1201.38 376.682 1200.52 376.937 1199.78 377.449C1199.05 377.953 1198.48 378.667 1198.07 379.59C1197.66 380.506 1197.46 381.582 1197.46 382.818C1197.46 384.082 1197.66 385.183 1198.06 386.121C1198.46 387.058 1199.03 387.786 1199.76 388.305C1200.5 388.823 1201.37 389.082 1202.36 389.082C1203.01 389.082 1203.61 388.969 1204.14 388.741C1204.67 388.514 1205.12 388.188 1205.49 387.761C1205.86 387.335 1206.12 386.824 1206.28 386.227H1208.79C1208.65 387.193 1208.3 388.063 1207.74 388.837C1207.19 389.604 1206.45 390.215 1205.53 390.67C1204.63 391.117 1203.57 391.341 1202.36 391.341ZM1219.33 391.341C1217.75 391.341 1216.39 390.993 1215.25 390.297C1214.11 389.594 1213.24 388.614 1212.62 387.357C1212.01 386.092 1211.7 384.622 1211.7 382.946C1211.7 381.27 1212.01 379.793 1212.62 378.514C1213.24 377.229 1214.1 376.227 1215.2 375.51C1216.31 374.786 1217.6 374.423 1219.08 374.423C1219.93 374.423 1220.77 374.565 1221.6 374.849C1222.43 375.134 1223.19 375.595 1223.87 376.234C1224.55 376.866 1225.09 377.705 1225.5 378.749C1225.9 379.793 1226.11 381.078 1226.11 382.605V383.67H1213.49V381.497H1223.55C1223.55 380.574 1223.36 379.75 1223 379.026C1222.63 378.301 1222.11 377.729 1221.44 377.31C1220.77 376.891 1219.98 376.682 1219.08 376.682C1218.07 376.682 1217.21 376.93 1216.48 377.428C1215.75 377.918 1215.19 378.557 1214.8 379.345C1214.41 380.134 1214.22 380.979 1214.22 381.881V383.33C1214.22 384.565 1214.43 385.613 1214.86 386.472C1215.29 387.325 1215.89 387.974 1216.66 388.422C1217.42 388.862 1218.32 389.082 1219.33 389.082C1219.99 389.082 1220.59 388.99 1221.12 388.805C1221.66 388.614 1222.13 388.33 1222.52 387.953C1222.91 387.57 1223.21 387.094 1223.42 386.526L1225.85 387.207C1225.6 388.031 1225.17 388.756 1224.56 389.381C1223.96 389.999 1223.21 390.482 1222.32 390.83C1221.44 391.17 1220.44 391.341 1219.33 391.341ZM1237.52 371.526V369.182H1253.88V371.526H1247.02V391H1244.38V371.526H1237.52ZM1260.21 391.384C1259.17 391.384 1258.23 391.188 1257.38 390.798C1256.54 390.4 1255.87 389.828 1255.37 389.082C1254.87 388.33 1254.62 387.42 1254.62 386.355C1254.62 385.418 1254.81 384.658 1255.18 384.075C1255.55 383.486 1256.04 383.024 1256.66 382.69C1257.28 382.357 1257.96 382.108 1258.7 381.945C1259.46 381.774 1260.21 381.639 1260.97 381.54C1261.97 381.412 1262.77 381.316 1263.39 381.252C1264.02 381.181 1264.47 381.064 1264.75 380.901C1265.05 380.737 1265.19 380.453 1265.19 380.048V379.963C1265.19 378.912 1264.9 378.095 1264.33 377.513C1263.76 376.93 1262.9 376.639 1261.74 376.639C1260.54 376.639 1259.6 376.902 1258.92 377.428C1258.23 377.953 1257.76 378.514 1257.48 379.111L1255.09 378.259C1255.52 377.264 1256.09 376.49 1256.8 375.936C1257.51 375.375 1258.29 374.984 1259.14 374.764C1259.99 374.537 1260.83 374.423 1261.65 374.423C1262.18 374.423 1262.78 374.487 1263.47 374.615C1264.15 374.736 1264.82 374.988 1265.46 375.371C1266.1 375.755 1266.64 376.334 1267.07 377.108C1267.49 377.882 1267.71 378.919 1267.71 380.219V391H1265.19V388.784H1265.06C1264.89 389.139 1264.61 389.519 1264.21 389.924C1263.81 390.329 1263.28 390.673 1262.62 390.957C1261.96 391.241 1261.16 391.384 1260.21 391.384ZM1260.59 389.125C1261.58 389.125 1262.42 388.93 1263.1 388.539C1263.79 388.148 1264.31 387.644 1264.66 387.026C1265.01 386.408 1265.19 385.759 1265.19 385.077V382.776C1265.08 382.903 1264.85 383.021 1264.49 383.127C1264.13 383.227 1263.72 383.315 1263.25 383.393C1262.79 383.464 1262.34 383.528 1261.9 383.585C1261.47 383.635 1261.11 383.678 1260.84 383.713C1260.19 383.798 1259.58 383.937 1259.01 384.129C1258.45 384.313 1258 384.594 1257.65 384.97C1257.31 385.339 1257.14 385.844 1257.14 386.483C1257.14 387.357 1257.46 388.017 1258.11 388.464C1258.76 388.905 1259.59 389.125 1260.59 389.125ZM1283.89 378.301L1281.63 378.94C1281.48 378.564 1281.28 378.198 1281 377.843C1280.73 377.481 1280.36 377.183 1279.89 376.948C1279.42 376.714 1278.82 376.597 1278.09 376.597C1277.09 376.597 1276.25 376.827 1275.59 377.289C1274.93 377.744 1274.6 378.322 1274.6 379.026C1274.6 379.651 1274.82 380.144 1275.28 380.506C1275.73 380.869 1276.44 381.17 1277.41 381.412L1279.84 382.009C1281.3 382.364 1282.39 382.907 1283.11 383.638C1283.82 384.363 1284.18 385.297 1284.18 386.44C1284.18 387.378 1283.91 388.216 1283.37 388.955C1282.84 389.693 1282.1 390.276 1281.14 390.702C1280.18 391.128 1279.06 391.341 1277.79 391.341C1276.12 391.341 1274.74 390.979 1273.65 390.254C1272.55 389.53 1271.86 388.472 1271.57 387.08L1273.96 386.483C1274.18 387.364 1274.61 388.024 1275.25 388.464C1275.88 388.905 1276.72 389.125 1277.75 389.125C1278.92 389.125 1279.85 388.876 1280.54 388.379C1281.24 387.875 1281.58 387.271 1281.58 386.568C1281.58 386 1281.39 385.524 1280.99 385.141C1280.59 384.75 1279.98 384.459 1279.16 384.267L1276.43 383.628C1274.93 383.273 1273.83 382.722 1273.13 381.977C1272.43 381.224 1272.08 380.283 1272.08 379.153C1272.08 378.23 1272.34 377.413 1272.86 376.703C1273.38 375.993 1274.1 375.435 1275 375.031C1275.91 374.626 1276.94 374.423 1278.09 374.423C1279.71 374.423 1280.98 374.778 1281.9 375.489C1282.83 376.199 1283.49 377.136 1283.89 378.301ZM1290.31 385.034L1290.27 381.923H1290.78L1297.94 374.636H1301.05L1293.42 382.349H1293.21L1290.31 385.034ZM1287.97 391V369.182H1290.48V391H1287.97ZM1298.37 391L1291.97 382.903L1293.76 381.156L1301.56 391H1298.37ZM1315.88 378.301L1313.62 378.94C1313.48 378.564 1313.27 378.198 1312.99 377.843C1312.72 377.481 1312.35 377.183 1311.88 376.948C1311.41 376.714 1310.81 376.597 1310.08 376.597C1309.08 376.597 1308.25 376.827 1307.58 377.289C1306.92 377.744 1306.59 378.322 1306.59 379.026C1306.59 379.651 1306.81 380.144 1307.27 380.506C1307.72 380.869 1308.43 381.17 1309.4 381.412L1311.83 382.009C1313.29 382.364 1314.38 382.907 1315.1 383.638C1315.82 384.363 1316.18 385.297 1316.18 386.44C1316.18 387.378 1315.91 388.216 1315.37 388.955C1314.83 389.693 1314.09 390.276 1313.13 390.702C1312.17 391.128 1311.05 391.341 1309.78 391.341C1308.11 391.341 1306.73 390.979 1305.64 390.254C1304.55 389.53 1303.85 388.472 1303.56 387.08L1305.95 386.483C1306.18 387.364 1306.61 388.024 1307.24 388.464C1307.88 388.905 1308.71 389.125 1309.74 389.125C1310.91 389.125 1311.84 388.876 1312.53 388.379C1313.23 387.875 1313.58 387.271 1313.58 386.568C1313.58 386 1313.38 385.524 1312.98 385.141C1312.58 384.75 1311.97 384.459 1311.15 384.267L1308.42 383.628C1306.92 383.273 1305.82 382.722 1305.12 381.977C1304.42 381.224 1304.07 380.283 1304.07 379.153C1304.07 378.23 1304.33 377.413 1304.85 376.703C1305.38 375.993 1306.09 375.435 1306.99 375.031C1307.9 374.626 1308.93 374.423 1310.08 374.423C1311.7 374.423 1312.97 374.778 1313.9 375.489C1314.83 376.199 1315.49 377.136 1315.88 378.301Z" fill="#33AAFF"/>
<path d="M298.542 414.182H301.696L309.111 432.293H309.366L316.781 414.182H319.934V436H317.463V419.423H317.25L310.432 436H308.045L301.227 419.423H301.014V436H298.542V414.182ZM329.706 436.384C328.669 436.384 327.728 436.188 326.883 435.798C326.038 435.4 325.367 434.828 324.87 434.082C324.373 433.33 324.124 432.42 324.124 431.355C324.124 430.418 324.309 429.658 324.678 429.075C325.047 428.486 325.541 428.024 326.159 427.69C326.777 427.357 327.458 427.108 328.204 426.945C328.957 426.774 329.713 426.639 330.473 426.54C331.468 426.412 332.274 426.316 332.892 426.252C333.517 426.181 333.971 426.064 334.255 425.901C334.547 425.737 334.692 425.453 334.692 425.048V424.963C334.692 423.912 334.404 423.095 333.829 422.513C333.261 421.93 332.398 421.639 331.24 421.639C330.04 421.639 329.099 421.902 328.417 422.428C327.735 422.953 327.256 423.514 326.979 424.111L324.593 423.259C325.019 422.264 325.587 421.49 326.297 420.936C327.015 420.375 327.796 419.984 328.641 419.764C329.493 419.537 330.331 419.423 331.155 419.423C331.681 419.423 332.284 419.487 332.966 419.615C333.655 419.736 334.319 419.988 334.958 420.371C335.605 420.755 336.141 421.334 336.567 422.108C336.993 422.882 337.206 423.919 337.206 425.219V436H334.692V433.784H334.564C334.394 434.139 334.11 434.519 333.712 434.924C333.314 435.329 332.785 435.673 332.125 435.957C331.464 436.241 330.658 436.384 329.706 436.384ZM330.09 434.125C331.084 434.125 331.922 433.93 332.604 433.539C333.293 433.148 333.811 432.644 334.159 432.026C334.515 431.408 334.692 430.759 334.692 430.077V427.776C334.586 427.903 334.351 428.021 333.989 428.127C333.634 428.227 333.222 428.315 332.753 428.393C332.292 428.464 331.841 428.528 331.4 428.585C330.967 428.635 330.615 428.678 330.346 428.713C329.692 428.798 329.081 428.937 328.513 429.129C327.952 429.313 327.498 429.594 327.15 429.97C326.809 430.339 326.638 430.844 326.638 431.483C326.638 432.357 326.961 433.017 327.608 433.464C328.261 433.905 329.088 434.125 330.09 434.125ZM344.309 426.156V436H341.795V419.636H344.224V422.193H344.437C344.821 421.362 345.403 420.695 346.184 420.19C346.966 419.679 347.974 419.423 349.21 419.423C350.318 419.423 351.287 419.651 352.118 420.105C352.949 420.553 353.596 421.234 354.057 422.151C354.519 423.06 354.75 424.21 354.75 425.602V436H352.236V425.773C352.236 424.487 351.902 423.486 351.234 422.768C350.567 422.044 349.65 421.682 348.486 421.682C347.683 421.682 346.966 421.856 346.334 422.204C345.709 422.552 345.215 423.06 344.853 423.727C344.491 424.395 344.309 425.205 344.309 426.156ZM364.159 436.384C363.123 436.384 362.181 436.188 361.336 435.798C360.491 435.4 359.82 434.828 359.323 434.082C358.826 433.33 358.577 432.42 358.577 431.355C358.577 430.418 358.762 429.658 359.131 429.075C359.5 428.486 359.994 428.024 360.612 427.69C361.23 427.357 361.912 427.108 362.657 426.945C363.41 426.774 364.167 426.639 364.926 426.54C365.921 426.412 366.727 426.316 367.345 426.252C367.97 426.181 368.424 426.064 368.708 425.901C369 425.737 369.145 425.453 369.145 425.048V424.963C369.145 423.912 368.858 423.095 368.282 422.513C367.714 421.93 366.851 421.639 365.694 421.639C364.493 421.639 363.552 421.902 362.87 422.428C362.189 422.953 361.709 423.514 361.432 424.111L359.046 423.259C359.472 422.264 360.04 421.49 360.75 420.936C361.468 420.375 362.249 419.984 363.094 419.764C363.946 419.537 364.784 419.423 365.608 419.423C366.134 419.423 366.738 419.487 367.419 419.615C368.108 419.736 368.772 419.988 369.412 420.371C370.058 420.755 370.594 421.334 371.02 422.108C371.446 422.882 371.659 423.919 371.659 425.219V436H369.145V433.784H369.017C368.847 434.139 368.563 434.519 368.165 434.924C367.767 435.329 367.238 435.673 366.578 435.957C365.917 436.241 365.111 436.384 364.159 436.384ZM364.543 434.125C365.537 434.125 366.375 433.93 367.057 433.539C367.746 433.148 368.265 432.644 368.613 432.026C368.968 431.408 369.145 430.759 369.145 430.077V427.776C369.039 427.903 368.804 428.021 368.442 428.127C368.087 428.227 367.675 428.315 367.206 428.393C366.745 428.464 366.294 428.528 365.853 428.585C365.42 428.635 365.069 428.678 364.799 428.713C364.145 428.798 363.534 428.937 362.966 429.129C362.405 429.313 361.951 429.594 361.603 429.97C361.262 430.339 361.091 430.844 361.091 431.483C361.091 432.357 361.414 433.017 362.061 433.464C362.714 433.905 363.542 434.125 364.543 434.125ZM382.854 442.477C381.639 442.477 380.595 442.321 379.721 442.009C378.848 441.703 378.12 441.298 377.537 440.794C376.962 440.297 376.504 439.764 376.163 439.196L378.166 437.79C378.393 438.088 378.681 438.429 379.029 438.812C379.377 439.203 379.853 439.54 380.456 439.825C381.067 440.116 381.866 440.261 382.854 440.261C384.175 440.261 385.265 439.942 386.124 439.303C386.983 438.663 387.413 437.662 387.413 436.298V432.974H387.2C387.015 433.273 386.753 433.642 386.412 434.082C386.078 434.516 385.595 434.903 384.963 435.244C384.338 435.577 383.493 435.744 382.427 435.744C381.106 435.744 379.92 435.432 378.869 434.807C377.825 434.182 376.998 433.273 376.387 432.08C375.783 430.886 375.481 429.437 375.481 427.733C375.481 426.057 375.776 424.597 376.366 423.354C376.955 422.104 377.775 421.138 378.827 420.457C379.878 419.768 381.092 419.423 382.47 419.423C383.535 419.423 384.381 419.601 385.006 419.956C385.638 420.304 386.121 420.702 386.454 421.149C386.795 421.589 387.058 421.952 387.243 422.236H387.498V419.636H389.927V436.469C389.927 437.875 389.608 439.018 388.969 439.899C388.336 440.787 387.484 441.437 386.412 441.849C385.346 442.268 384.16 442.477 382.854 442.477ZM382.768 433.486C383.777 433.486 384.629 433.255 385.325 432.793C386.021 432.332 386.55 431.668 386.912 430.801C387.275 429.935 387.456 428.898 387.456 427.69C387.456 426.511 387.278 425.471 386.923 424.569C386.568 423.667 386.042 422.96 385.346 422.449C384.65 421.937 383.791 421.682 382.768 421.682C381.703 421.682 380.815 421.952 380.105 422.491C379.402 423.031 378.873 423.756 378.518 424.665C378.17 425.574 377.996 426.582 377.996 427.69C377.996 428.827 378.173 429.832 378.528 430.705C378.89 431.572 379.423 432.254 380.126 432.751C380.836 433.241 381.717 433.486 382.768 433.486ZM401.39 436.341C399.814 436.341 398.454 435.993 397.31 435.297C396.174 434.594 395.297 433.614 394.679 432.357C394.068 431.092 393.763 429.622 393.763 427.946C393.763 426.27 394.068 424.793 394.679 423.514C395.297 422.229 396.156 421.227 397.257 420.51C398.365 419.786 399.657 419.423 401.135 419.423C401.987 419.423 402.829 419.565 403.66 419.849C404.491 420.134 405.247 420.595 405.929 421.234C406.611 421.866 407.154 422.705 407.559 423.749C407.964 424.793 408.166 426.078 408.166 427.605V428.67H395.552V426.497H405.609C405.609 425.574 405.425 424.75 405.055 424.026C404.693 423.301 404.175 422.729 403.5 422.31C402.832 421.891 402.044 421.682 401.135 421.682C400.133 421.682 399.267 421.93 398.535 422.428C397.811 422.918 397.253 423.557 396.863 424.345C396.472 425.134 396.277 425.979 396.277 426.881V428.33C396.277 429.565 396.49 430.613 396.916 431.472C397.349 432.325 397.949 432.974 398.716 433.422C399.483 433.862 400.375 434.082 401.39 434.082C402.051 434.082 402.648 433.99 403.18 433.805C403.72 433.614 404.185 433.33 404.576 432.953C404.966 432.57 405.268 432.094 405.481 431.526L407.91 432.207C407.655 433.031 407.225 433.756 406.621 434.381C406.018 434.999 405.272 435.482 404.384 435.83C403.496 436.17 402.498 436.341 401.39 436.341ZM438.326 421H435.684C435.528 420.24 435.254 419.572 434.863 418.997C434.48 418.422 434.011 417.939 433.457 417.548C432.91 417.151 432.303 416.852 431.635 416.653C430.968 416.455 430.272 416.355 429.547 416.355C428.226 416.355 427.03 416.689 425.957 417.357C424.892 418.024 424.043 419.008 423.411 420.308C422.786 421.607 422.474 423.202 422.474 425.091C422.474 426.98 422.786 428.575 423.411 429.874C424.043 431.174 424.892 432.158 425.957 432.825C427.03 433.493 428.226 433.827 429.547 433.827C430.272 433.827 430.968 433.727 431.635 433.528C432.303 433.33 432.91 433.035 433.457 432.644C434.011 432.246 434.48 431.76 434.863 431.185C435.254 430.602 435.528 429.935 435.684 429.182H438.326C438.127 430.297 437.765 431.295 437.239 432.175C436.714 433.056 436.06 433.805 435.279 434.423C434.498 435.034 433.621 435.499 432.648 435.819C431.682 436.138 430.648 436.298 429.547 436.298C427.687 436.298 426.032 435.844 424.583 434.935C423.134 434.026 421.994 432.733 421.163 431.057C420.332 429.381 419.917 427.392 419.917 425.091C419.917 422.79 420.332 420.801 421.163 419.125C421.994 417.449 423.134 416.156 424.583 415.247C426.032 414.338 427.687 413.884 429.547 413.884C430.648 413.884 431.682 414.043 432.648 414.363C433.621 414.683 434.498 415.151 435.279 415.769C436.06 416.38 436.714 417.126 437.239 418.006C437.765 418.88 438.127 419.878 438.326 421ZM444.768 414.182V436H442.254V414.182H444.768ZM449.373 436V419.636H451.888V436H449.373ZM450.652 416.909C450.162 416.909 449.739 416.742 449.384 416.408C449.036 416.075 448.862 415.673 448.862 415.205C448.862 414.736 449.036 414.335 449.384 414.001C449.739 413.667 450.162 413.5 450.652 413.5C451.142 413.5 451.561 413.667 451.909 414.001C452.264 414.335 452.442 414.736 452.442 415.205C452.442 415.673 452.264 416.075 451.909 416.408C451.561 416.742 451.142 416.909 450.652 416.909ZM463.353 436.341C461.777 436.341 460.417 435.993 459.273 435.297C458.137 434.594 457.26 433.614 456.642 432.357C456.031 431.092 455.725 429.622 455.725 427.946C455.725 426.27 456.031 424.793 456.642 423.514C457.26 422.229 458.119 421.227 459.22 420.51C460.328 419.786 461.62 419.423 463.098 419.423C463.95 419.423 464.792 419.565 465.623 419.849C466.453 420.134 467.21 420.595 467.892 421.234C468.574 421.866 469.117 422.705 469.522 423.749C469.926 424.793 470.129 426.078 470.129 427.605V428.67H457.515V426.497H467.572C467.572 425.574 467.387 424.75 467.018 424.026C466.656 423.301 466.137 422.729 465.463 422.31C464.795 421.891 464.007 421.682 463.098 421.682C462.096 421.682 461.23 421.93 460.498 422.428C459.774 422.918 459.216 423.557 458.826 424.345C458.435 425.134 458.24 425.979 458.24 426.881V428.33C458.24 429.565 458.453 430.613 458.879 431.472C459.312 432.325 459.912 432.974 460.679 433.422C461.446 433.862 462.338 434.082 463.353 434.082C464.014 434.082 464.61 433.99 465.143 433.805C465.683 433.614 466.148 433.33 466.539 432.953C466.929 432.57 467.231 432.094 467.444 431.526L469.873 432.207C469.618 433.031 469.188 433.756 468.584 434.381C467.98 434.999 467.235 435.482 466.347 435.83C465.459 436.17 464.461 436.341 463.353 436.341ZM476.468 426.156V436H473.953V419.636H476.382V422.193H476.596C476.979 421.362 477.561 420.695 478.343 420.19C479.124 419.679 480.132 419.423 481.368 419.423C482.476 419.423 483.446 419.651 484.277 420.105C485.108 420.553 485.754 421.234 486.216 422.151C486.677 423.06 486.908 424.21 486.908 425.602V436H484.394V425.773C484.394 424.487 484.06 423.486 483.392 422.768C482.725 422.044 481.809 421.682 480.644 421.682C479.841 421.682 479.124 421.856 478.492 422.204C477.867 422.552 477.373 423.06 477.011 423.727C476.649 424.395 476.468 425.205 476.468 426.156ZM498.619 419.636V421.767H490.139V419.636H498.619ZM492.61 415.716H495.124V431.312C495.124 432.023 495.227 432.555 495.433 432.911C495.646 433.259 495.916 433.493 496.243 433.614C496.577 433.727 496.928 433.784 497.298 433.784C497.575 433.784 497.802 433.77 497.98 433.741C498.157 433.706 498.299 433.678 498.406 433.656L498.917 435.915C498.747 435.979 498.509 436.043 498.203 436.107C497.898 436.178 497.511 436.213 497.042 436.213C496.332 436.213 495.636 436.06 494.954 435.755C494.279 435.45 493.718 434.984 493.271 434.359C492.83 433.734 492.61 432.946 492.61 431.994V415.716ZM348.56 457H345.918C345.762 456.24 345.488 455.572 345.098 454.997C344.714 454.422 344.246 453.939 343.692 453.548C343.145 453.151 342.537 452.852 341.87 452.653C341.202 452.455 340.506 452.355 339.782 452.355C338.461 452.355 337.264 452.689 336.192 453.357C335.126 454.024 334.278 455.008 333.645 456.308C333.02 457.607 332.708 459.202 332.708 461.091C332.708 462.98 333.02 464.575 333.645 465.874C334.278 467.174 335.126 468.158 336.192 468.825C337.264 469.493 338.461 469.827 339.782 469.827C340.506 469.827 341.202 469.727 341.87 469.528C342.537 469.33 343.145 469.035 343.692 468.644C344.246 468.246 344.714 467.76 345.098 467.185C345.488 466.602 345.762 465.935 345.918 465.182H348.56C348.361 466.297 347.999 467.295 347.474 468.175C346.948 469.056 346.295 469.805 345.513 470.423C344.732 471.034 343.855 471.499 342.882 471.819C341.916 472.138 340.883 472.298 339.782 472.298C337.921 472.298 336.266 471.844 334.817 470.935C333.368 470.026 332.229 468.733 331.398 467.057C330.567 465.381 330.151 463.392 330.151 461.091C330.151 458.79 330.567 456.801 331.398 455.125C332.229 453.449 333.368 452.156 334.817 451.247C336.266 450.338 337.921 449.884 339.782 449.884C340.883 449.884 341.916 450.043 342.882 450.363C343.855 450.683 344.732 451.151 345.513 451.769C346.295 452.38 346.948 453.126 347.474 454.006C347.999 454.88 348.361 455.878 348.56 457ZM359.136 472.341C357.659 472.341 356.363 471.989 355.248 471.286C354.14 470.583 353.273 469.599 352.648 468.335C352.031 467.071 351.722 465.594 351.722 463.903C351.722 462.199 352.031 460.711 352.648 459.44C353.273 458.168 354.14 457.181 355.248 456.478C356.363 455.775 357.659 455.423 359.136 455.423C360.614 455.423 361.906 455.775 363.014 456.478C364.129 457.181 364.996 458.168 365.614 459.44C366.239 460.711 366.551 462.199 366.551 463.903C366.551 465.594 366.239 467.071 365.614 468.335C364.996 469.599 364.129 470.583 363.014 471.286C361.906 471.989 360.614 472.341 359.136 472.341ZM359.136 470.082C360.259 470.082 361.182 469.795 361.906 469.219C362.631 468.644 363.167 467.888 363.515 466.95C363.863 466.013 364.037 464.997 364.037 463.903C364.037 462.81 363.863 461.79 363.515 460.846C363.167 459.901 362.631 459.138 361.906 458.555C361.182 457.973 360.259 457.682 359.136 457.682C358.014 457.682 357.091 457.973 356.366 458.555C355.642 459.138 355.106 459.901 354.758 460.846C354.41 461.79 354.236 462.81 354.236 463.903C354.236 464.997 354.41 466.013 354.758 466.95C355.106 467.888 355.642 468.644 356.366 469.219C357.091 469.795 358.014 470.082 359.136 470.082ZM372.903 462.156V472H370.389V455.636H372.818V458.193H373.031C373.415 457.362 373.997 456.695 374.778 456.19C375.559 455.679 376.568 455.423 377.804 455.423C378.912 455.423 379.881 455.651 380.712 456.105C381.543 456.553 382.189 457.234 382.651 458.151C383.113 459.06 383.344 460.21 383.344 461.602V472H380.829V461.773C380.829 460.487 380.496 459.486 379.828 458.768C379.16 458.044 378.244 457.682 377.079 457.682C376.277 457.682 375.559 457.856 374.927 458.204C374.302 458.552 373.809 459.06 373.447 459.727C373.084 460.395 372.903 461.205 372.903 462.156ZM395.054 455.636V457.767H386.574V455.636H395.054ZM389.046 451.716H391.56V467.312C391.56 468.023 391.663 468.555 391.869 468.911C392.082 469.259 392.352 469.493 392.679 469.614C393.012 469.727 393.364 469.784 393.733 469.784C394.01 469.784 394.238 469.77 394.415 469.741C394.593 469.706 394.735 469.678 394.841 469.656L395.353 471.915C395.182 471.979 394.944 472.043 394.639 472.107C394.333 472.178 393.946 472.213 393.478 472.213C392.767 472.213 392.071 472.06 391.39 471.755C390.715 471.45 390.154 470.984 389.706 470.359C389.266 469.734 389.046 468.946 389.046 467.994V451.716ZM398.836 472V455.636H401.265V458.108H401.436C401.734 457.298 402.274 456.641 403.055 456.137C403.836 455.633 404.717 455.381 405.697 455.381C405.882 455.381 406.113 455.384 406.39 455.391C406.667 455.398 406.876 455.409 407.018 455.423V457.98C406.933 457.959 406.738 457.927 406.432 457.884C406.134 457.835 405.818 457.81 405.484 457.81C404.689 457.81 403.978 457.977 403.353 458.31C402.735 458.637 402.245 459.092 401.883 459.674C401.528 460.249 401.35 460.906 401.35 461.645V472H398.836ZM414.814 472.384C413.777 472.384 412.836 472.188 411.991 471.798C411.145 471.4 410.474 470.828 409.977 470.082C409.48 469.33 409.231 468.42 409.231 467.355C409.231 466.418 409.416 465.658 409.785 465.075C410.155 464.486 410.648 464.024 411.266 463.69C411.884 463.357 412.566 463.108 413.312 462.945C414.064 462.774 414.821 462.639 415.581 462.54C416.575 462.412 417.381 462.316 417.999 462.252C418.624 462.181 419.079 462.064 419.363 461.901C419.654 461.737 419.8 461.453 419.8 461.048V460.963C419.8 459.912 419.512 459.095 418.937 458.513C418.368 457.93 417.506 457.639 416.348 457.639C415.148 457.639 414.206 457.902 413.525 458.428C412.843 458.953 412.363 459.514 412.086 460.111L409.7 459.259C410.126 458.264 410.694 457.49 411.405 456.936C412.122 456.375 412.903 455.984 413.748 455.764C414.601 455.537 415.439 455.423 416.263 455.423C416.788 455.423 417.392 455.487 418.074 455.615C418.763 455.736 419.427 455.988 420.066 456.371C420.712 456.755 421.248 457.334 421.675 458.108C422.101 458.882 422.314 459.919 422.314 461.219V472H419.8V469.784H419.672C419.501 470.139 419.217 470.519 418.819 470.924C418.422 471.329 417.893 471.673 417.232 471.957C416.572 472.241 415.765 472.384 414.814 472.384ZM415.197 470.125C416.192 470.125 417.03 469.93 417.711 469.539C418.4 469.148 418.919 468.644 419.267 468.026C419.622 467.408 419.8 466.759 419.8 466.077V463.776C419.693 463.903 419.459 464.021 419.096 464.127C418.741 464.227 418.329 464.315 417.861 464.393C417.399 464.464 416.948 464.528 416.508 464.585C416.074 464.635 415.723 464.678 415.453 464.713C414.8 464.798 414.189 464.937 413.621 465.129C413.059 465.313 412.605 465.594 412.257 465.97C411.916 466.339 411.746 466.844 411.746 467.483C411.746 468.357 412.069 469.017 412.715 469.464C413.368 469.905 414.196 470.125 415.197 470.125ZM433.55 472.341C432.016 472.341 430.695 471.979 429.587 471.254C428.479 470.53 427.627 469.532 427.031 468.261C426.434 466.989 426.136 465.537 426.136 463.903C426.136 462.241 426.441 460.775 427.052 459.504C427.67 458.225 428.529 457.227 429.63 456.51C430.738 455.786 432.031 455.423 433.508 455.423C434.658 455.423 435.695 455.636 436.619 456.062C437.542 456.489 438.298 457.085 438.888 457.852C439.477 458.619 439.843 459.514 439.985 460.537H437.471C437.279 459.791 436.853 459.131 436.192 458.555C435.539 457.973 434.658 457.682 433.55 457.682C432.57 457.682 431.711 457.937 430.972 458.449C430.241 458.953 429.669 459.667 429.257 460.59C428.852 461.506 428.65 462.582 428.65 463.818C428.65 465.082 428.849 466.183 429.246 467.121C429.651 468.058 430.219 468.786 430.951 469.305C431.69 469.823 432.556 470.082 433.55 470.082C434.204 470.082 434.797 469.969 435.33 469.741C435.862 469.514 436.313 469.188 436.683 468.761C437.052 468.335 437.315 467.824 437.471 467.227H439.985C439.843 468.193 439.491 469.063 438.93 469.837C438.376 470.604 437.641 471.215 436.725 471.67C435.816 472.117 434.758 472.341 433.55 472.341ZM450.777 455.636V457.767H442.297V455.636H450.777ZM444.768 451.716H447.283V467.312C447.283 468.023 447.386 468.555 447.592 468.911C447.805 469.259 448.075 469.493 448.401 469.614C448.735 469.727 449.087 469.784 449.456 469.784C449.733 469.784 449.96 469.77 450.138 469.741C450.315 469.706 450.457 469.678 450.564 469.656L451.075 471.915C450.905 471.979 450.667 472.043 450.362 472.107C450.056 472.178 449.669 472.213 449.2 472.213C448.49 472.213 447.794 472.06 447.112 471.755C446.438 471.45 445.876 470.984 445.429 470.359C444.989 469.734 444.768 468.946 444.768 467.994V451.716ZM465.857 459.301L463.598 459.94C463.456 459.564 463.247 459.198 462.97 458.843C462.7 458.481 462.331 458.183 461.862 457.948C461.393 457.714 460.793 457.597 460.061 457.597C459.06 457.597 458.225 457.827 457.558 458.289C456.897 458.744 456.567 459.322 456.567 460.026C456.567 460.651 456.794 461.144 457.249 461.506C457.703 461.869 458.414 462.17 459.38 462.412L461.809 463.009C463.272 463.364 464.362 463.907 465.079 464.638C465.797 465.363 466.155 466.297 466.155 467.44C466.155 468.378 465.885 469.216 465.346 469.955C464.813 470.693 464.067 471.276 463.108 471.702C462.15 472.128 461.034 472.341 459.763 472.341C458.094 472.341 456.713 471.979 455.619 471.254C454.525 470.53 453.833 469.472 453.542 468.08L455.928 467.483C456.155 468.364 456.585 469.024 457.217 469.464C457.856 469.905 458.691 470.125 459.721 470.125C460.892 470.125 461.823 469.876 462.512 469.379C463.208 468.875 463.556 468.271 463.556 467.568C463.556 467 463.357 466.524 462.959 466.141C462.561 465.75 461.951 465.459 461.127 465.267L458.4 464.628C456.901 464.273 455.8 463.722 455.097 462.977C454.401 462.224 454.053 461.283 454.053 460.153C454.053 459.23 454.312 458.413 454.831 457.703C455.356 456.993 456.07 456.435 456.972 456.031C457.881 455.626 458.911 455.423 460.061 455.423C461.681 455.423 462.952 455.778 463.875 456.489C464.806 457.199 465.466 458.136 465.857 459.301Z" fill="#33AAFF"/>
<path d="M312.797 648.182H315.951L323.366 666.293H323.621L331.036 648.182H334.189V670H331.718V653.423H331.505L324.687 670H322.3L315.482 653.423H315.269V670H312.797V648.182ZM343.961 670.384C342.924 670.384 341.983 670.188 341.138 669.798C340.293 669.4 339.622 668.828 339.125 668.082C338.627 667.33 338.379 666.42 338.379 665.355C338.379 664.418 338.563 663.658 338.933 663.075C339.302 662.486 339.796 662.024 340.414 661.69C341.032 661.357 341.713 661.108 342.459 660.945C343.212 660.774 343.968 660.639 344.728 660.54C345.723 660.412 346.529 660.316 347.147 660.252C347.772 660.181 348.226 660.064 348.51 659.901C348.801 659.737 348.947 659.453 348.947 659.048V658.963C348.947 657.912 348.659 657.095 348.084 656.513C347.516 655.93 346.653 655.639 345.495 655.639C344.295 655.639 343.354 655.902 342.672 656.428C341.99 656.953 341.511 657.514 341.234 658.111L338.848 657.259C339.274 656.264 339.842 655.49 340.552 654.936C341.269 654.375 342.051 653.984 342.896 653.764C343.748 653.537 344.586 653.423 345.41 653.423C345.936 653.423 346.539 653.487 347.221 653.615C347.91 653.736 348.574 653.988 349.213 654.371C349.86 654.755 350.396 655.334 350.822 656.108C351.248 656.882 351.461 657.919 351.461 659.219V670H348.947V667.784H348.819C348.649 668.139 348.365 668.519 347.967 668.924C347.569 669.329 347.04 669.673 346.38 669.957C345.719 670.241 344.913 670.384 343.961 670.384ZM344.345 668.125C345.339 668.125 346.177 667.93 346.859 667.539C347.548 667.148 348.066 666.644 348.414 666.026C348.769 665.408 348.947 664.759 348.947 664.077V661.776C348.84 661.903 348.606 662.021 348.244 662.127C347.889 662.227 347.477 662.315 347.008 662.393C346.546 662.464 346.095 662.528 345.655 662.585C345.222 662.635 344.87 662.678 344.6 662.713C343.947 662.798 343.336 662.937 342.768 663.129C342.207 663.313 341.752 663.594 341.404 663.97C341.063 664.339 340.893 664.844 340.893 665.483C340.893 666.357 341.216 667.017 341.862 667.464C342.516 667.905 343.343 668.125 344.345 668.125ZM358.564 660.156V670H356.05V653.636H358.479V656.193H358.692C359.076 655.362 359.658 654.695 360.439 654.19C361.221 653.679 362.229 653.423 363.465 653.423C364.573 653.423 365.542 653.651 366.373 654.105C367.204 654.553 367.851 655.234 368.312 656.151C368.774 657.06 369.005 658.21 369.005 659.602V670H366.491V659.773C366.491 658.487 366.157 657.486 365.489 656.768C364.821 656.044 363.905 655.682 362.741 655.682C361.938 655.682 361.221 655.856 360.589 656.204C359.964 656.552 359.47 657.06 359.108 657.727C358.745 658.395 358.564 659.205 358.564 660.156ZM378.414 670.384C377.377 670.384 376.436 670.188 375.591 669.798C374.746 669.4 374.075 668.828 373.578 668.082C373.081 667.33 372.832 666.42 372.832 665.355C372.832 664.418 373.017 663.658 373.386 663.075C373.755 662.486 374.249 662.024 374.867 661.69C375.485 661.357 376.166 661.108 376.912 660.945C377.665 660.774 378.421 660.639 379.181 660.54C380.176 660.412 380.982 660.316 381.6 660.252C382.225 660.181 382.679 660.064 382.963 659.901C383.255 659.737 383.4 659.453 383.4 659.048V658.963C383.4 657.912 383.112 657.095 382.537 656.513C381.969 655.93 381.106 655.639 379.948 655.639C378.748 655.639 377.807 655.902 377.125 656.428C376.443 656.953 375.964 657.514 375.687 658.111L373.301 657.259C373.727 656.264 374.295 655.49 375.005 654.936C375.723 654.375 376.504 653.984 377.349 653.764C378.201 653.537 379.039 653.423 379.863 653.423C380.389 653.423 380.992 653.487 381.674 653.615C382.363 653.736 383.027 653.988 383.666 654.371C384.313 654.755 384.849 655.334 385.275 656.108C385.701 656.882 385.914 657.919 385.914 659.219V670H383.4V667.784H383.272C383.102 668.139 382.818 668.519 382.42 668.924C382.022 669.329 381.493 669.673 380.833 669.957C380.172 670.241 379.366 670.384 378.414 670.384ZM378.798 668.125C379.792 668.125 380.63 667.93 381.312 667.539C382.001 667.148 382.519 666.644 382.867 666.026C383.223 665.408 383.4 664.759 383.4 664.077V661.776C383.294 661.903 383.059 662.021 382.697 662.127C382.342 662.227 381.93 662.315 381.461 662.393C381 662.464 380.549 662.528 380.108 662.585C379.675 662.635 379.323 662.678 379.054 662.713C378.4 662.798 377.789 662.937 377.221 663.129C376.66 663.313 376.206 663.594 375.858 663.97C375.517 664.339 375.346 664.844 375.346 665.483C375.346 666.357 375.669 667.017 376.316 667.464C376.969 667.905 377.796 668.125 378.798 668.125ZM397.108 676.477C395.894 676.477 394.85 676.321 393.976 676.009C393.103 675.703 392.375 675.298 391.792 674.794C391.217 674.297 390.759 673.764 390.418 673.196L392.421 671.79C392.648 672.088 392.936 672.429 393.284 672.812C393.632 673.203 394.108 673.54 394.711 673.825C395.322 674.116 396.121 674.261 397.108 674.261C398.429 674.261 399.52 673.942 400.379 673.303C401.238 672.663 401.668 671.662 401.668 670.298V666.974H401.455C401.27 667.273 401.008 667.642 400.667 668.082C400.333 668.516 399.85 668.903 399.218 669.244C398.593 669.577 397.748 669.744 396.682 669.744C395.361 669.744 394.175 669.432 393.124 668.807C392.08 668.182 391.253 667.273 390.642 666.08C390.038 664.886 389.736 663.437 389.736 661.733C389.736 660.057 390.031 658.597 390.62 657.354C391.21 656.104 392.03 655.138 393.081 654.457C394.133 653.768 395.347 653.423 396.725 653.423C397.79 653.423 398.635 653.601 399.26 653.956C399.892 654.304 400.375 654.702 400.709 655.149C401.05 655.589 401.313 655.952 401.498 656.236H401.753V653.636H404.182V670.469C404.182 671.875 403.863 673.018 403.223 673.899C402.591 674.787 401.739 675.437 400.667 675.849C399.601 676.268 398.415 676.477 397.108 676.477ZM397.023 667.486C398.032 667.486 398.884 667.255 399.58 666.793C400.276 666.332 400.805 665.668 401.167 664.801C401.53 663.935 401.711 662.898 401.711 661.69C401.711 660.511 401.533 659.471 401.178 658.569C400.823 657.667 400.297 656.96 399.601 656.449C398.905 655.937 398.046 655.682 397.023 655.682C395.958 655.682 395.07 655.952 394.36 656.491C393.657 657.031 393.128 657.756 392.772 658.665C392.424 659.574 392.25 660.582 392.25 661.69C392.25 662.827 392.428 663.832 392.783 664.705C393.145 665.572 393.678 666.254 394.381 666.751C395.091 667.241 395.972 667.486 397.023 667.486ZM415.645 670.341C414.069 670.341 412.709 669.993 411.565 669.297C410.429 668.594 409.552 667.614 408.934 666.357C408.323 665.092 408.017 663.622 408.017 661.946C408.017 660.27 408.323 658.793 408.934 657.514C409.552 656.229 410.411 655.227 411.512 654.51C412.62 653.786 413.912 653.423 415.39 653.423C416.242 653.423 417.084 653.565 417.915 653.849C418.745 654.134 419.502 654.595 420.184 655.234C420.866 655.866 421.409 656.705 421.814 657.749C422.218 658.793 422.421 660.078 422.421 661.605V662.67H409.807V660.497H419.864C419.864 659.574 419.679 658.75 419.31 658.026C418.948 657.301 418.429 656.729 417.755 656.31C417.087 655.891 416.299 655.682 415.39 655.682C414.388 655.682 413.522 655.93 412.79 656.428C412.066 656.918 411.508 657.557 411.118 658.345C410.727 659.134 410.532 659.979 410.532 660.881V662.33C410.532 663.565 410.745 664.613 411.171 665.472C411.604 666.325 412.204 666.974 412.971 667.422C413.738 667.862 414.63 668.082 415.645 668.082C416.306 668.082 416.902 667.99 417.435 667.805C417.975 667.614 418.44 667.33 418.831 666.953C419.221 666.57 419.523 666.094 419.736 665.526L422.165 666.207C421.91 667.031 421.48 667.756 420.876 668.381C420.272 668.999 419.527 669.482 418.639 669.83C417.751 670.17 416.753 670.341 415.645 670.341ZM435.919 670H433.149L441.16 648.182H443.888L451.899 670H449.129L442.609 651.634H442.439L435.919 670ZM436.941 661.477H448.106V663.821H436.941V661.477ZM461.562 676.477C460.347 676.477 459.303 676.321 458.429 676.009C457.556 675.703 456.828 675.298 456.245 674.794C455.67 674.297 455.212 673.764 454.871 673.196L456.874 671.79C457.101 672.088 457.389 672.429 457.737 672.812C458.085 673.203 458.561 673.54 459.165 673.825C459.775 674.116 460.574 674.261 461.562 674.261C462.883 674.261 463.973 673.942 464.832 673.303C465.691 672.663 466.121 671.662 466.121 670.298V666.974H465.908C465.723 667.273 465.461 667.642 465.12 668.082C464.786 668.516 464.303 668.903 463.671 669.244C463.046 669.577 462.201 669.744 461.135 669.744C459.814 669.744 458.628 669.432 457.577 668.807C456.533 668.182 455.706 667.273 455.095 666.08C454.491 664.886 454.189 663.437 454.189 661.733C454.189 660.057 454.484 658.597 455.074 657.354C455.663 656.104 456.483 655.138 457.535 654.457C458.586 653.768 459.8 653.423 461.178 653.423C462.243 653.423 463.089 653.601 463.714 653.956C464.346 654.304 464.829 654.702 465.162 655.149C465.503 655.589 465.766 655.952 465.951 656.236H466.206V653.636H468.635V670.469C468.635 671.875 468.316 673.018 467.677 673.899C467.044 674.787 466.192 675.437 465.12 675.849C464.054 676.268 462.868 676.477 461.562 676.477ZM461.476 667.486C462.485 667.486 463.337 667.255 464.033 666.793C464.729 666.332 465.258 665.668 465.62 664.801C465.983 663.935 466.164 662.898 466.164 661.69C466.164 660.511 465.986 659.471 465.631 658.569C465.276 657.667 464.75 656.96 464.054 656.449C463.358 655.937 462.499 655.682 461.476 655.682C460.411 655.682 459.523 655.952 458.813 656.491C458.11 657.031 457.581 657.756 457.226 658.665C456.878 659.574 456.704 660.582 456.704 661.69C456.704 662.827 456.881 663.832 457.236 664.705C457.598 665.572 458.131 666.254 458.834 666.751C459.544 667.241 460.425 667.486 461.476 667.486ZM480.098 670.341C478.522 670.341 477.162 669.993 476.018 669.297C474.882 668.594 474.005 667.614 473.387 666.357C472.776 665.092 472.471 663.622 472.471 661.946C472.471 660.27 472.776 658.793 473.387 657.514C474.005 656.229 474.864 655.227 475.965 654.51C477.073 653.786 478.366 653.423 479.843 653.423C480.695 653.423 481.537 653.565 482.368 653.849C483.199 654.134 483.955 654.595 484.637 655.234C485.319 655.866 485.862 656.705 486.267 657.749C486.672 658.793 486.874 660.078 486.874 661.605V662.67H474.26V660.497H484.317C484.317 659.574 484.133 658.75 483.763 658.026C483.401 657.301 482.883 656.729 482.208 656.31C481.54 655.891 480.752 655.682 479.843 655.682C478.841 655.682 477.975 655.93 477.243 656.428C476.519 656.918 475.961 657.557 475.571 658.345C475.18 659.134 474.985 659.979 474.985 660.881V662.33C474.985 663.565 475.198 664.613 475.624 665.472C476.057 666.325 476.657 666.974 477.424 667.422C478.191 667.862 479.083 668.082 480.098 668.082C480.759 668.082 481.356 667.99 481.888 667.805C482.428 667.614 482.893 667.33 483.284 666.953C483.674 666.57 483.976 666.094 484.189 665.526L486.618 666.207C486.363 667.031 485.933 667.756 485.329 668.381C484.726 668.999 483.98 669.482 483.092 669.83C482.204 670.17 481.206 670.341 480.098 670.341ZM493.213 660.156V670H490.699V653.636H493.128V656.193H493.341C493.724 655.362 494.307 654.695 495.088 654.19C495.869 653.679 496.878 653.423 498.113 653.423C499.221 653.423 500.191 653.651 501.022 654.105C501.853 654.553 502.499 655.234 502.961 656.151C503.422 657.06 503.653 658.21 503.653 659.602V670H501.139V659.773C501.139 658.487 500.805 657.486 500.138 656.768C499.47 656.044 498.554 655.682 497.389 655.682C496.586 655.682 495.869 655.856 495.237 656.204C494.612 656.552 494.118 657.06 493.756 657.727C493.394 658.395 493.213 659.205 493.213 660.156ZM515.364 653.636V655.767H506.884V653.636H515.364ZM509.355 649.716H511.87V665.312C511.87 666.023 511.973 666.555 512.179 666.911C512.392 667.259 512.661 667.493 512.988 667.614C513.322 667.727 513.674 667.784 514.043 667.784C514.32 667.784 514.547 667.77 514.725 667.741C514.902 667.706 515.044 667.678 515.151 667.656L515.662 669.915C515.492 669.979 515.254 670.043 514.948 670.107C514.643 670.178 514.256 670.213 513.787 670.213C513.077 670.213 512.381 670.06 511.699 669.755C511.024 669.45 510.463 668.984 510.016 668.359C509.576 667.734 509.355 666.946 509.355 665.994V649.716ZM361.059 706H354.326V684.182H361.357C363.473 684.182 365.284 684.619 366.79 685.492C368.296 686.359 369.45 687.605 370.252 689.232C371.055 690.851 371.456 692.79 371.456 695.048C371.456 697.321 371.051 699.278 370.242 700.918C369.432 702.552 368.253 703.809 366.705 704.69C365.157 705.563 363.275 706 361.059 706ZM356.968 703.656H360.888C362.692 703.656 364.187 703.308 365.373 702.612C366.559 701.916 367.444 700.925 368.026 699.64C368.608 698.354 368.9 696.824 368.9 695.048C368.9 693.287 368.612 691.771 368.037 690.499C367.461 689.221 366.602 688.241 365.458 687.559C364.315 686.87 362.891 686.526 361.186 686.526H356.968V703.656ZM380.363 706.384C379.326 706.384 378.385 706.188 377.539 705.798C376.694 705.4 376.023 704.828 375.526 704.082C375.029 703.33 374.78 702.42 374.78 701.355C374.78 700.418 374.965 699.658 375.334 699.075C375.703 698.486 376.197 698.024 376.815 697.69C377.433 697.357 378.115 697.108 378.86 696.945C379.613 696.774 380.37 696.639 381.13 696.54C382.124 696.412 382.93 696.316 383.548 696.252C384.173 696.181 384.627 696.064 384.912 695.901C385.203 695.737 385.348 695.453 385.348 695.048V694.963C385.348 693.912 385.061 693.095 384.485 692.513C383.917 691.93 383.054 691.639 381.897 691.639C380.696 691.639 379.755 691.902 379.074 692.428C378.392 692.953 377.912 693.514 377.635 694.111L375.249 693.259C375.675 692.264 376.243 691.49 376.953 690.936C377.671 690.375 378.452 689.984 379.297 689.764C380.15 689.537 380.988 689.423 381.811 689.423C382.337 689.423 382.941 689.487 383.623 689.615C384.311 689.736 384.975 689.988 385.615 690.371C386.261 690.755 386.797 691.334 387.223 692.108C387.65 692.882 387.863 693.919 387.863 695.219V706H385.348V703.784H385.221C385.05 704.139 384.766 704.519 384.368 704.924C383.971 705.329 383.441 705.673 382.781 705.957C382.12 706.241 381.314 706.384 380.363 706.384ZM380.746 704.125C381.74 704.125 382.578 703.93 383.26 703.539C383.949 703.148 384.468 702.644 384.816 702.026C385.171 701.408 385.348 700.759 385.348 700.077V697.776C385.242 697.903 385.007 698.021 384.645 698.127C384.29 698.227 383.878 698.315 383.409 698.393C382.948 698.464 382.497 698.528 382.056 698.585C381.623 698.635 381.272 698.678 381.002 698.713C380.348 698.798 379.738 698.937 379.169 699.129C378.608 699.313 378.154 699.594 377.806 699.97C377.465 700.339 377.294 700.844 377.294 701.483C377.294 702.357 377.618 703.017 378.264 703.464C378.917 703.905 379.745 704.125 380.746 704.125ZM393.485 712.136C393.059 712.136 392.679 712.101 392.345 712.03C392.011 711.966 391.78 711.902 391.653 711.838L392.292 709.622C392.903 709.778 393.442 709.835 393.911 709.793C394.38 709.75 394.795 709.54 395.157 709.164C395.527 708.795 395.864 708.195 396.17 707.364L396.638 706.085L390.587 689.636H393.314L397.831 702.676H398.002L402.519 689.636H405.246L398.3 708.386C397.988 709.232 397.601 709.931 397.139 710.485C396.677 711.046 396.141 711.462 395.53 711.732C394.927 712.001 394.245 712.136 393.485 712.136ZM417.343 706V684.182H424.715C426.427 684.182 427.826 684.491 428.913 685.109C430.007 685.719 430.816 686.547 431.342 687.591C431.867 688.635 432.13 689.8 432.13 691.085C432.13 692.371 431.867 693.539 431.342 694.59C430.823 695.641 430.021 696.479 428.934 697.104C427.847 697.722 426.455 698.031 424.758 698.031H419.474V695.688H424.673C425.845 695.688 426.786 695.485 427.496 695.08C428.206 694.675 428.721 694.129 429.041 693.44C429.367 692.744 429.531 691.959 429.531 691.085C429.531 690.212 429.367 689.43 429.041 688.741C428.721 688.053 428.203 687.513 427.485 687.122C426.768 686.724 425.816 686.526 424.63 686.526H419.985V706H417.343ZM438.559 684.182V706H436.045V684.182H438.559ZM447.98 706.384C446.943 706.384 446.002 706.188 445.157 705.798C444.311 705.4 443.64 704.828 443.143 704.082C442.646 703.33 442.397 702.42 442.397 701.355C442.397 700.418 442.582 699.658 442.951 699.075C443.321 698.486 443.814 698.024 444.432 697.69C445.05 697.357 445.732 697.108 446.478 696.945C447.23 696.774 447.987 696.639 448.747 696.54C449.741 696.412 450.547 696.316 451.165 696.252C451.79 696.181 452.245 696.064 452.529 695.901C452.82 695.737 452.966 695.453 452.966 695.048V694.963C452.966 693.912 452.678 693.095 452.103 692.513C451.534 691.93 450.672 691.639 449.514 691.639C448.314 691.639 447.373 691.902 446.691 692.428C446.009 692.953 445.529 693.514 445.252 694.111L442.866 693.259C443.292 692.264 443.86 691.49 444.571 690.936C445.288 690.375 446.069 689.984 446.914 689.764C447.767 689.537 448.605 689.423 449.429 689.423C449.954 689.423 450.558 689.487 451.24 689.615C451.929 689.736 452.593 689.988 453.232 690.371C453.878 690.755 454.414 691.334 454.841 692.108C455.267 692.882 455.48 693.919 455.48 695.219V706H452.966V703.784H452.838C452.667 704.139 452.383 704.519 451.985 704.924C451.588 705.329 451.059 705.673 450.398 705.957C449.738 706.241 448.931 706.384 447.98 706.384ZM448.363 704.125C449.358 704.125 450.196 703.93 450.877 703.539C451.566 703.148 452.085 702.644 452.433 702.026C452.788 701.408 452.966 700.759 452.966 700.077V697.776C452.859 697.903 452.625 698.021 452.262 698.127C451.907 698.227 451.495 698.315 451.027 698.393C450.565 698.464 450.114 698.528 449.674 698.585C449.24 698.635 448.889 698.678 448.619 698.713C447.966 698.798 447.355 698.937 446.787 699.129C446.225 699.313 445.771 699.594 445.423 699.97C445.082 700.339 444.912 700.844 444.912 701.483C444.912 702.357 445.235 703.017 445.881 703.464C446.534 703.905 447.362 704.125 448.363 704.125ZM462.583 696.156V706H460.069V689.636H462.498V692.193H462.711C463.094 691.362 463.677 690.695 464.458 690.19C465.239 689.679 466.248 689.423 467.483 689.423C468.591 689.423 469.561 689.651 470.392 690.105C471.223 690.553 471.869 691.234 472.331 692.151C472.792 693.06 473.023 694.21 473.023 695.602V706H470.509V695.773C470.509 694.487 470.175 693.486 469.508 692.768C468.84 692.044 467.924 691.682 466.759 691.682C465.956 691.682 465.239 691.856 464.607 692.204C463.982 692.552 463.488 693.06 463.126 693.727C462.764 694.395 462.583 695.205 462.583 696.156Z" fill="#33AAFF"/>
<g clip-path="url(#clip1_1433_7536)">
<path fill-rule="evenodd" clip-rule="evenodd" d="M684.57 329.667C668.074 320.355 645.462 318.816 622.392 322.76C587.924 328.658 552.446 346.767 534.981 369.018C534.627 369.481 534.709 370.147 535.162 370.502C535.625 370.866 536.281 370.785 536.645 370.322C553.842 348.418 588.807 330.647 622.753 324.848C645.298 320.989 667.408 322.401 683.529 331.512C684.04 331.803 684.681 331.621 684.972 331.11C685.253 330.61 685.081 329.958 684.57 329.667Z" fill="#053F5C"/>
<path fill-rule="evenodd" clip-rule="evenodd" d="M507.622 388.492C518.398 376.12 529.111 366.349 534.897 349.884C535.085 349.327 534.803 348.721 534.246 348.534C533.699 348.336 533.094 348.627 532.906 349.174C526.536 367.29 514.061 377.142 502.262 391.54C501.628 392.321 502.072 392.929 502.19 393.066C502.362 393.271 502.699 393.54 503.262 393.412C503.372 393.387 503.582 393.306 503.859 393.151C504.382 392.843 505.395 392.126 505.879 391.85C507.284 391.065 508.701 390.32 510.106 389.534C514.123 387.288 518.152 385.093 522.337 383.195C537.983 376.068 550.731 370.142 567.544 375.983C568.101 376.18 568.697 375.889 568.894 375.332C569.082 374.785 568.79 374.18 568.244 373.992C550.853 367.944 537.64 373.902 521.457 381.266C517.222 383.197 513.133 385.416 509.077 387.684C508.592 387.96 508.107 388.226 507.622 388.492Z" fill="#053F5C"/>
</g>
<g clip-path="url(#clip2_1433_7536)">
<path fill-rule="evenodd" clip-rule="evenodd" d="M939.48 354.144C971.419 301.895 1034.94 299.754 1091.95 319.871C1092.93 320.214 1093.94 319.717 1094.21 318.756C1094.47 317.795 1093.89 316.733 1092.92 316.389C1034.31 295.706 969.135 298.321 936.302 352.034C935.789 352.869 936.085 354.021 936.964 354.607C937.839 355.191 938.965 354.984 939.48 354.144Z" fill="#053F5C"/>
<path fill-rule="evenodd" clip-rule="evenodd" d="M1091.36 317.752C1088.23 318.297 1084.28 318.937 1083.84 319.023C1071.79 321.353 1060.9 325.471 1050.36 331.384C1049.5 331.863 1049.25 332.987 1049.8 333.888C1050.34 334.79 1051.48 335.131 1052.34 334.652C1062.56 328.915 1073.12 324.918 1084.81 322.66C1085.49 322.528 1094.36 321.094 1096.12 320.667C1096.84 320.495 1097.18 320.167 1097.25 320.081C1097.65 319.643 1097.72 319.177 1097.7 318.805C1097.67 318.386 1097.46 317.691 1096.75 317.048C1096.01 316.378 1094.17 315.348 1093.73 315.052C1087.01 310.567 1079.17 306.119 1072.65 300.594C1066.43 295.324 1061.4 289.067 1059.98 280.716C1059.81 279.699 1058.85 278.951 1057.85 279.043C1056.85 279.136 1056.18 280.04 1056.35 281.057C1057.94 290.393 1063.46 297.455 1070.41 303.343C1076.89 308.836 1084.64 313.298 1091.36 317.752Z" fill="#053F5C"/>
</g>
<g clip-path="url(#clip3_1433_7536)">
<path fill-rule="evenodd" clip-rule="evenodd" d="M946.607 547.107C961.398 541.946 980.027 544.01 998.224 550.602C1025.41 560.455 1051.63 580.395 1062.58 601.065C1062.8 601.494 1062.64 602.024 1062.22 602.246C1061.79 602.474 1061.26 602.312 1061.04 601.882C1050.25 581.534 1024.4 561.944 997.624 552.248C979.841 545.801 961.641 543.709 947.185 548.76C946.726 548.922 946.231 548.68 946.069 548.222C945.913 547.774 946.149 547.269 946.607 547.107Z" fill="#053F5C"/>
<path fill-rule="evenodd" clip-rule="evenodd" d="M1081.99 620.924C1075.04 609.275 1067.75 599.752 1065.46 585.504C1065.38 585.023 1065.7 584.571 1066.18 584.5C1066.66 584.419 1067.11 584.746 1067.18 585.218C1069.71 600.896 1078.42 610.743 1085.91 624.191C1086.31 624.919 1085.86 625.349 1085.74 625.443C1085.57 625.585 1085.26 625.754 1084.82 625.568C1084.73 625.531 1084.58 625.435 1084.37 625.268C1083.99 624.94 1083.27 624.209 1082.92 623.913C1081.89 623.068 1080.85 622.253 1079.82 621.408C1076.88 618.991 1073.92 616.614 1070.79 614.455C1059.11 606.362 1049.6 599.669 1035.06 601.958C1034.58 602.037 1034.14 601.713 1034.06 601.23C1033.98 600.758 1034.31 600.308 1034.78 600.235C1049.82 597.863 1059.7 604.649 1071.79 613.015C1074.96 615.208 1077.96 617.613 1080.93 620.053C1081.28 620.349 1081.64 620.636 1081.99 620.924Z" fill="#053F5C"/>
</g>
<g clip-path="url(#clip4_1433_7536)">
<path fill-rule="evenodd" clip-rule="evenodd" d="M673.063 565.896C617.94 538.999 565.812 574.268 531.477 625.145C530.886 626.018 529.792 626.177 529.036 625.494C528.281 624.811 528.143 623.547 528.735 622.675C564.028 570.37 617.752 534.546 674.418 562.198C675.302 562.627 675.715 563.805 675.342 564.83C674.971 565.851 673.95 566.328 673.063 565.896Z" fill="#053F5C"/>
<path fill-rule="evenodd" clip-rule="evenodd" d="M530.751 622.954C533.571 621.597 537.095 619.849 537.5 619.664C548.473 614.653 559.531 611.877 571.323 610.871C572.28 610.788 573.115 611.622 573.187 612.727C573.259 613.833 572.537 614.797 571.58 614.88C560.145 615.852 549.42 618.541 538.777 623.403C538.157 623.686 530.237 627.622 528.584 628.278C527.907 628.552 527.45 628.463 527.344 628.43C526.776 628.281 526.461 627.913 526.268 627.576C526.053 627.195 525.83 626.464 526.033 625.491C526.248 624.474 527.139 622.501 527.329 621.983C530.179 614.143 533.951 605.681 536.057 597.048C538.066 588.816 538.561 580.419 534.981 572.305C534.544 571.318 534.887 570.106 535.742 569.602C536.597 569.097 537.646 569.494 538.083 570.481C542.084 579.553 541.652 588.937 539.407 598.136C537.313 606.718 533.624 615.138 530.751 622.954Z" fill="#053F5C"/>
</g>
<defs>
<clipPath id="clip0_1433_7536">
<rect width="70" height="70" fill="white" transform="translate(979.836 159) rotate(35.4669)"/>
</clipPath>
<clipPath id="clip1_1433_7536">
<rect width="186" height="186" fill="white" transform="translate(681.803 259) rotate(87.3574)"/>
</clipPath>
<clipPath id="clip2_1433_7536">
<rect width="137.273" height="129.822" fill="white" transform="matrix(-0.900098 -0.435687 0.384187 -0.923255 1056.92 417.463)"/>
</clipPath>
<clipPath id="clip3_1433_7536">
<rect width="153.813" height="153.813" fill="white" transform="matrix(-0.222486 0.974936 0.974936 0.222486 959.221 490)"/>
</clipPath>
<clipPath id="clip4_1433_7536">
<rect width="140.482" height="131.458" fill="white" transform="matrix(0.46453 -0.885558 -0.819268 -0.57341 614.699 689.784)"/>
</clipPath>
</defs>
</svg>
