<svg width="20" height="14" viewBox="0 0 20 14" fill="none" xmlns="http://www.w3.org/2000/svg">
<path d="M19.5992 3.08239C19.5992 3.08239 19.4072 1.7304 18.8192 1.1384C18.0732 0.358398 17.2372 0.354398 16.8552 0.308398C14.1152 0.108398 9.99922 0.108398 9.99922 0.108398H9.99122C9.99122 0.108398 5.87522 0.108398 3.13522 0.308398C2.75322 0.354398 1.91722 0.358398 1.17122 1.1384C0.581219 1.7324 0.393219 3.08239 0.393219 3.08239C0.393219 3.08239 0.199219 4.66639 0.199219 6.25639V7.74039C0.199219 9.32438 0.395219 10.9144 0.395219 10.9144C0.395219 10.9144 0.587219 12.2664 1.17322 12.8584C1.91922 13.6384 2.89922 13.6124 3.33722 13.6964C4.90722 13.8464 10.0012 13.8924 10.0012 13.8924C10.0012 13.8924 14.1212 13.8844 16.8612 13.6884C17.2432 13.6424 18.0792 13.6384 18.8252 12.8584C19.4152 12.2644 19.6052 10.9144 19.6052 10.9144C19.6052 10.9144 19.8012 9.33038 19.8012 7.74039V6.25439C19.7952 4.67239 19.5992 3.08239 19.5992 3.08239ZM7.96922 9.54438V4.03439L13.2632 6.79839L7.96922 9.54438Z" fill="#053F5C"/>
</svg>
