<svg width="20" height="20" viewBox="0 0 20 20" fill="none" xmlns="http://www.w3.org/2000/svg">
<path d="M19.7992 12.1177V19.3638H15.5972V12.6037C15.5972 10.9057 14.9892 9.74575 13.4692 9.74575C12.3072 9.74575 11.6172 10.5257 11.3132 11.2817C11.2032 11.5517 11.1732 11.9277 11.1732 12.3057V19.3638H6.97322C6.97322 19.3638 7.02922 7.91175 6.97322 6.72574H11.1752V8.51575C11.1672 8.52975 11.1552 8.54375 11.1472 8.55775H11.1752V8.51575C11.7332 7.65575 12.7292 6.42774 14.9612 6.42774C17.7272 6.42974 19.7992 8.23575 19.7992 12.1177ZM2.57722 0.635742C1.13922 0.635742 0.199219 1.57774 0.199219 2.81774C0.199219 4.03174 1.11322 5.00174 2.52122 5.00174H2.54922C4.01522 5.00174 4.92522 4.03174 4.92522 2.81774C4.89922 1.57774 4.01522 0.635742 2.57722 0.635742ZM0.449219 19.3638H4.64922V6.72775H0.449219V19.3638Z" fill="#053F5C"/>
</svg>
