<svg width="311" height="119" viewBox="0 0 311 119" fill="none" xmlns="http://www.w3.org/2000/svg">
<path d="M44.8369 73.2539L34.5566 69.2247L57.8096 60.2812L48.8662 83.5342L44.8369 73.2539Z" fill="#F27F0C"/>
<path d="M83.5103 34.5801H51.027L34.5566 51.2015H67.1165V83.5337L83.5103 67.1399L83.5103 34.5801Z" fill="#053F5C"/>
<path d="M103.575 72.5566H109.509V62.9142H120.226V58.2043H109.509V52.048H121.673V47.3381H103.575V72.5566ZM124.79 50.6016H130.464V45.8546H124.79V50.6016ZM124.79 72.5566H130.464V52.6043H124.79V72.5566ZM153.082 65.9924H147.148C146.554 67.8096 145.293 68.6255 143.439 68.6255C140.991 68.6255 139.508 66.9195 139.211 63.7301H152.933V62.4692C152.933 55.942 149.188 51.9738 143.217 51.9738C137.283 51.9738 133.426 55.7937 133.426 62.5805C133.426 69.1447 137.246 73.15 143.439 73.15C148.335 73.15 152.043 70.5911 153.082 65.9924ZM143.217 56.4983C145.293 56.4983 146.629 57.8705 147.074 60.4666H139.323C139.768 57.8705 141.103 56.4983 143.217 56.4983ZM156.045 72.5566H161.719V45.8546H156.045V72.5566ZM173.026 73.15C175.102 73.15 176.845 72.1858 178.069 70.4427V72.5566H183.743V45.8546H178.069V54.5699C176.845 52.8639 175.139 51.9738 173.026 51.9738C167.982 51.9738 164.681 55.7937 164.681 62.5805C164.681 69.1447 167.908 73.15 173.026 73.15ZM174.249 68.5513C171.839 68.5513 170.504 66.4374 170.504 62.5805C170.504 58.6864 171.802 56.5725 174.249 56.5725C176.734 56.5725 178.069 58.7235 178.069 62.5805C178.069 66.4745 176.771 68.5513 174.249 68.5513ZM187.888 72.5566H193.822V64.3235H197.79C203.909 64.3235 207.803 61.2083 207.803 55.7937C207.803 50.4904 203.946 47.3381 197.716 47.3381H187.888V72.5566ZM197.604 52.048C200.275 52.048 201.684 53.5315 201.684 55.8308C201.684 58.093 200.349 59.6136 197.456 59.6136H193.822V52.048H197.604ZM210.841 72.5566H216.516V62.2467C216.516 59.0944 218.036 57.1659 221.448 57.1659C222.338 57.1659 223.043 57.2401 223.71 57.3884V52.6043C223.302 52.1963 222.561 51.9738 221.745 51.9738C219.705 51.9738 217.777 53.0122 216.516 55.3858V52.6043H210.841V72.5566ZM234.556 73.15C240.49 73.15 244.384 69.3301 244.384 62.5805C244.384 56.0533 240.601 51.9738 234.556 51.9738C228.622 51.9738 224.765 55.7937 224.765 62.5805C224.765 69.1447 228.511 73.15 234.556 73.15ZM234.556 68.5513C231.997 68.5513 230.588 66.4374 230.588 62.5805C230.588 58.6864 231.96 56.5725 234.556 56.5725C237.152 56.5725 238.561 58.7235 238.561 62.5805C238.561 66.4745 237.189 68.5513 234.556 68.5513ZM258.643 72.5566H265.207L258.347 62.2467L264.725 52.6043H258.792L256.233 56.8321L255.305 58.7977L254.341 56.8321L251.745 52.6043H245.181L251.597 62.2467L244.736 72.5566H250.707L253.711 67.6242L254.675 65.6957L255.602 67.6242L258.643 72.5566ZM270.011 81.3461C273.757 81.3461 275.834 79.5659 277.947 74.1143L286.403 52.6043H280.618L276.983 63.2109L276.167 66.2149L275.426 63.2109L271.606 52.6043H265.561L273.275 71.6666L272.867 72.6679C271.606 76.0427 270.382 76.4878 268.379 76.4878H267.23V80.7898C267.749 81.0123 268.898 81.3461 270.011 81.3461Z" fill="#053F5C"/>
</svg>
