<svg width="710" height="533" viewBox="0 0 710 533" fill="none" xmlns="http://www.w3.org/2000/svg">
<path d="M459.882 213.006C446.079 254.238 407.669 283.902 362.427 283.902C305.565 283.902 259.473 237.082 259.473 179.333C259.473 164.447 262.56 150.29 268.077 137.462L224.486 124.653C217.975 141.596 214.355 160.03 214.355 179.333C214.355 262.399 280.638 329.729 362.41 329.729C426.635 329.729 481.297 288.178 501.806 230.109L459.882 213.006Z" fill="#228BE6"/>
<path d="M226.898 118.763L269.407 131.448C279.148 109.147 295.222 96.5145 316.654 85.6744L298.947 43.4492C266.906 58.92 241.234 85.7276 226.898 118.763Z" fill="#042D41"/>
<path d="M362.411 28.9366C346.106 28.9366 330.422 31.6511 315.75 36.601L332.782 79.181C342.167 76.3246 352.12 74.7634 362.411 74.7634C419.273 74.7634 465.365 121.584 465.365 179.333C465.365 185.684 464.78 191.876 463.715 197.908L506.934 212.031C509.241 201.492 510.483 190.563 510.483 179.333C510.465 96.284 444.182 28.9366 362.411 28.9366Z" fill="#228BE6"/>
<path d="M216.235 173.319C210.221 177.435 200.073 180.61 197.518 192.976C194.999 205.342 184.194 227.235 167.712 225.035L160.083 262.47C160.083 262.47 114.7 268.822 108.064 245.332C108.064 245.332 125.824 199.008 126.125 190.138C126.445 181.231 127.101 151.762 143.264 143.513C143.264 143.513 156.286 110.176 181.639 112.731C198.689 114.452 205.431 122.879 207.24 128.982C205.697 128.539 204.065 128.308 202.379 128.308C198.44 128.308 194.786 129.585 191.823 131.75C191.592 131.626 191.379 131.537 191.166 131.448C187.689 129.869 165.814 131.768 171.172 147.309C171.172 147.309 184.194 155.524 183.236 170.125C183.236 170.125 184.815 174.578 189.25 170.125C190.741 168.67 193.615 166.186 196.986 163.578C203.869 158.274 212.794 152.508 216.2 153.998C216.856 154.299 217.442 154.761 217.974 155.364C221.451 159.391 221.487 169.717 216.235 173.319Z" fill="#F8A696"/>
<path d="M207.029 135.227C204.652 137.622 195.763 133.542 191.807 131.732C194.769 129.567 198.424 128.29 202.363 128.29C204.048 128.29 205.681 128.521 207.224 128.964C208.164 131.963 207.863 134.393 207.029 135.227Z" fill="#F8A696"/>
<path d="M220.407 146.316C220.407 149.172 219.733 151.869 218.562 154.264C218.26 154.122 218.083 153.998 217.994 153.963L216.22 157.759C216.22 157.759 216.255 157.759 216.273 157.795C212.973 161.804 207.97 164.341 202.364 164.341C200.501 164.341 198.691 164.04 196.988 163.543C189.661 161.254 184.32 154.406 184.32 146.316C184.32 140.319 187.265 134.979 191.79 131.714C195.728 133.524 204.635 137.622 207.012 135.21C207.846 134.376 208.147 131.945 207.225 128.947C214.836 131.076 220.407 138.066 220.407 146.316Z" fill="#053F5C"/>
<path d="M140.41 153.962C140.41 153.962 191.169 157.298 178.484 195.85" stroke="#EC6567" stroke-width="1.77417" stroke-miterlimit="10" stroke-linecap="round"/>
<path d="M138.83 171.402C138.83 171.402 179.44 185.684 176.584 200.268C173.728 214.869 144.543 212.013 140.409 212.013C136.293 212.013 132.478 203.444 140.409 201.226C148.339 199.008 149.936 197.128 149.936 197.128L135.796 191.823" stroke="#EC6567" stroke-width="1.77417" stroke-miterlimit="10" stroke-linecap="round"/>
<path d="M284.205 126.019C276.168 134.375 290.219 139.733 290.219 139.733C290.219 139.733 276.807 153.199 293.927 161.804C311.048 170.426 367.005 189.179 367.005 189.179C367.005 189.179 398.408 150.999 377.366 128.041C356.342 105.066 320.753 115.427 307.801 121.566C294.885 127.722 284.205 126.019 284.205 126.019Z" fill="#234046"/>
<path d="M301.946 138.172C301.946 138.172 318.712 140.408 324.531 130.117H328.772C328.772 130.117 329.215 148.888 338.831 153.82C338.831 153.82 341.297 142.643 348.891 141.969C348.891 141.969 362.534 137.267 366.331 152.472C367.449 157.173 362.091 163.649 356.271 165.21C356.271 165.21 371.511 200.747 374.865 203.657C378.218 206.566 336.259 207.915 336.259 207.915L329.002 197.181C329.002 197.181 303.88 195.744 298.203 165.885C298.203 165.885 290.858 161.378 292.987 160.669C295.116 159.959 301.041 158.77 301.041 154.743C301.024 150.733 301.946 138.172 301.946 138.172Z" fill="#F8A696"/>
<path d="M330.228 197.926C329.5 197.926 328.862 197.394 328.755 196.649C328.631 195.833 329.199 195.088 330.015 194.963C352.263 191.734 353.399 174.135 353.434 173.39C353.469 172.573 354.215 171.97 354.995 171.988C355.811 172.023 356.45 172.715 356.415 173.531C356.397 173.744 355.173 194.307 330.459 197.909C330.37 197.926 330.299 197.926 330.228 197.926Z" fill="#EC6567"/>
<path d="M347.861 158.841C347.684 158.841 347.524 158.805 347.347 158.752C346.584 158.468 346.194 157.617 346.477 156.854C346.619 156.446 350.292 146.883 358.098 146.936C358.914 146.954 359.571 147.628 359.553 148.444C359.535 149.26 358.95 149.917 358.045 149.899C352.421 149.864 349.298 157.794 349.263 157.883C349.015 158.468 348.465 158.841 347.861 158.841Z" fill="#EC6567"/>
<path d="M324.55 147.806C324.195 147.806 323.822 147.682 323.538 147.416C318.269 142.501 311.35 147.327 311.048 147.54C310.392 148.019 309.452 147.859 308.99 147.203C308.511 146.529 308.671 145.606 309.327 145.145C312.485 142.874 319.919 140 325.561 145.269C326.164 145.837 326.2 146.759 325.632 147.362C325.33 147.646 324.94 147.806 324.55 147.806Z" fill="black"/>
<path d="M309.786 180.309C309.325 180.309 309.023 180.273 308.988 180.273C308.172 180.185 307.586 179.457 307.675 178.641C307.764 177.825 308.473 177.222 309.307 177.328C309.378 177.346 312.359 177.594 314.222 175.802C315.463 174.632 316.013 172.733 315.872 170.214C315.836 169.398 316.457 168.706 317.273 168.653C318.072 168.617 318.781 169.238 318.834 170.054C319.012 173.514 318.142 176.175 316.244 177.985C314.062 180.025 311.17 180.309 309.786 180.309Z" fill="#EC6567"/>
<path d="M315.237 157.67C317.158 157.67 318.714 156.113 318.714 154.192C318.714 152.272 317.158 150.715 315.237 150.715C313.317 150.715 311.76 152.272 311.76 154.192C311.76 156.113 313.317 157.67 315.237 157.67Z" fill="#234046"/>
<path d="M332.515 202.291L371.813 197.128C371.813 197.128 383.079 223.598 391.683 225.514C400.288 227.43 513.515 228.868 527.372 271.856V355.277L215.083 361.291C215.083 361.291 162.159 398.229 132.602 397.023C103.044 395.817 65.0592 377.117 82.5525 316.21C100.046 255.303 111.436 236.266 111.436 236.266C111.436 236.266 124.6 266.249 162.603 249.98L156.127 300.544C156.127 300.544 228.495 245.066 232.115 242.653C235.734 240.24 256.847 225.16 284.577 226.366C312.307 227.572 331.007 228.779 335.229 228.779C339.452 228.779 341.244 216.803 332.515 202.291Z" fill="#053F5C"/>
<path d="M140.409 368.636C140.285 368.636 140.161 368.619 140.037 368.583C139.238 368.37 138.777 367.572 138.972 366.774C139.097 366.277 152.385 316.263 154.94 301.271C155.082 300.455 155.561 300.562 156.377 300.704C157.193 300.846 156.767 301.484 156.625 302.3C154.053 317.416 141.953 367.04 141.829 367.536C141.669 368.193 141.066 368.636 140.409 368.636Z" fill="#042D41"/>
<path d="M602.756 268.112H214.355V491.622H602.756V268.112Z" fill="white"/>
<path d="M602.756 268.112H214.355V288.852H602.756V268.112Z" fill="#E4DEE0"/>
<path d="M602.757 288.852H465.365V491.622H602.757V288.852Z" fill="#EDEDED"/>
<path d="M585.495 301.254H481.352V307.463H585.495V301.254Z" fill="white"/>
<path d="M585.495 318.552H481.352V324.761H585.495V318.552Z" fill="white"/>
<path d="M585.495 335.85H481.352V342.059H585.495V335.85Z" fill="white"/>
<path d="M539.933 422.536C478.511 330.137 446.665 334.981 388.88 343.798C379.264 345.271 369.311 346.779 358.293 348.003C347.418 349.209 337.341 348.5 328.363 345.874L329.605 341.598C338.032 344.047 347.507 344.721 357.797 343.568C368.726 342.343 378.625 340.835 388.206 339.381C445.831 330.581 480.622 325.276 543.641 420.052L539.933 422.536Z" fill="#E4DEE0"/>
<path d="M218.578 154.264C218.401 154.619 218.223 154.973 218.01 155.328C217.514 156.18 216.946 157.014 216.29 157.794C216.254 157.759 216.236 157.759 216.236 157.759L218.01 153.962C218.099 153.998 218.277 154.122 218.578 154.264Z" fill="#9FC380"/>
<path d="M330.954 342.201L329.907 346.299C291.354 335.495 279.148 286.776 269.372 247.638C266.8 237.348 264.387 227.607 261.655 219.304C247.355 175.287 217.85 158.646 216.271 157.794C216.928 157.031 217.496 156.197 217.992 155.328C218.205 154.973 218.383 154.618 218.56 154.263C223.031 156.783 251.187 174.099 265.487 217.956C268.219 226.401 270.685 236.194 273.258 246.556C282.785 284.629 294.654 332.035 330.954 342.201Z" fill="white"/>
<path d="M552.369 446.682C562.325 446.682 570.395 438.611 570.395 428.656C570.395 418.701 562.325 410.631 552.369 410.631C542.414 410.631 534.344 418.701 534.344 428.656C534.344 438.611 542.414 446.682 552.369 446.682Z" fill="white"/>
<path d="M353.68 249.164C359.322 235.964 383.628 247.727 390.121 252.765C390.121 252.765 406.337 249.873 414.268 252.765C414.268 252.765 421.843 249.873 431.921 252.765L470.491 267.402L422.553 268.626C422.553 268.626 416.06 271.873 414.623 280.886C413.185 289.899 400.199 297.474 390.831 290.253C390.831 290.253 377.347 294.21 375.431 282.678C373.515 271.146 375.431 265.38 375.431 265.38C375.431 265.38 347.524 263.588 353.68 249.164Z" fill="#F79D91"/>
<path d="M375.45 266.87C375.166 266.87 374.882 266.782 374.616 266.604C373.942 266.143 373.764 265.22 374.226 264.546C374.527 264.103 381.589 253.812 389.696 251.346C390.477 251.116 391.311 251.559 391.542 252.34C391.772 253.121 391.329 253.954 390.548 254.185C383.451 256.332 376.745 266.125 376.674 266.214C376.39 266.64 375.929 266.87 375.45 266.87Z" fill="#EC6567"/>
<path d="M390.851 291.744C390.212 291.744 389.627 291.336 389.432 290.697C389.361 290.449 382.282 266.178 413.649 251.435C414.394 251.08 415.281 251.4 415.618 252.145C415.973 252.89 415.654 253.777 414.909 254.114C385.954 267.722 392.004 288.923 392.27 289.828C392.501 290.609 392.075 291.442 391.277 291.673C391.135 291.709 390.993 291.744 390.851 291.744Z" fill="#EC6567"/>
<path d="M474.112 268.112C474.112 268.112 455.732 238.004 437.351 249.164C418.971 260.323 416.806 290.981 419.326 293.5C421.845 296.02 431.585 296.392 440.598 281.613C449.611 266.835 455.377 268.272 455.377 268.272L474.112 268.112Z" fill="#F8A393"/>
<path d="M474.716 268.236C471.256 263.339 467.211 258.833 462.651 255.019C458.109 251.293 452.751 248.117 447.056 247.851C441.326 247.39 436.252 250.903 432.349 255.072C428.445 259.33 425.695 264.581 423.797 270.081C421.952 275.599 420.834 281.454 420.71 287.184C420.675 288.586 420.71 290.041 420.923 291.247C420.976 291.868 421.296 292.4 421.029 291.921C421.154 292.081 421.65 292.223 422.076 292.383C424.081 292.897 426.76 292.187 429.031 290.857C431.373 289.597 433.502 287.716 435.382 285.587C437.334 283.458 438.842 281.117 440.723 278.562C442.586 276.096 444.573 273.718 446.932 271.643C448.121 270.631 449.398 269.709 450.818 268.999C452.219 268.307 453.78 267.704 455.448 268.059L455.342 268.485C453.976 268.502 452.627 269.283 451.492 270.099C450.321 270.933 449.31 271.997 448.352 273.097C446.418 275.28 444.785 277.728 443.313 280.265C440.51 285.41 437.032 291.158 431.284 294.689C428.41 296.357 424.95 297.687 420.994 296.853C420 296.57 419.007 296.232 418.013 295.363C417.818 295.239 417.446 294.813 417.162 294.352C416.967 293.979 416.878 293.713 416.754 293.394C416.612 292.879 416.505 292.383 416.452 291.957C416.204 290.183 416.239 288.604 416.31 287.007C416.754 280.709 418.226 274.659 420.462 268.857C422.697 263.091 425.855 257.556 430.273 253.067C432.508 250.849 434.992 248.915 437.848 247.443C440.705 245.953 444.04 245.332 447.234 245.616C453.71 246.272 459.068 249.962 463.556 253.99C468.027 258.123 471.877 262.86 475.124 267.97L474.716 268.236Z" fill="white"/>
<path d="M235.433 460.893H227.219V477.588H235.433V460.893Z" fill="#234046"/>
<path d="M249.129 394.575H240.861V477.606H249.129V394.575Z" fill="#053F5C"/>
<path d="M276.222 416.557H268.008V477.588H276.222V416.557Z" fill="#234046"/>
<path d="M289.916 374.562H281.648V477.588H289.916V374.562Z" fill="#053F5C"/>
<path d="M316.99 380.328H308.775V477.588H316.99V380.328Z" fill="#234046"/>
<path d="M330.705 313.407H322.438V477.606H330.705V313.407Z" fill="#053F5C"/>
<path d="M357.779 386.893H349.564V477.588H357.779V386.893Z" fill="#234046"/>
<path d="M371.477 324.495H363.209V477.606H371.477V324.495Z" fill="#053F5C"/>
<path d="M398.566 416.557H390.352V477.588H398.566V416.557Z" fill="#234046"/>
<path d="M412.262 374.562H403.994V477.588H412.262V374.562Z" fill="#053F5C"/>
<path d="M436.818 416.557H428.604V477.588H436.818V416.557Z" fill="#234046"/>
<path d="M450.529 374.562H442.262V477.588H450.529V374.562Z" fill="#053F5C"/>
<path d="M325.026 354.017C334.981 354.017 343.051 345.947 343.051 335.991C343.051 326.036 334.981 317.966 325.026 317.966C315.07 317.966 307 326.036 307 335.991C307 345.947 315.07 354.017 325.026 354.017Z" fill="#228BE6"/>
</svg>
