<svg width="20" height="20" viewBox="0 0 20 20" fill="none" xmlns="http://www.w3.org/2000/svg">
<path d="M14.5792 14.0058C14.5792 13.7338 14.4512 13.5158 14.1972 13.3558C12.5552 12.3778 10.6532 11.8878 8.49322 11.8878C7.36122 11.8878 6.14122 12.0318 4.83122 12.3218C4.47322 12.3978 4.29522 12.6198 4.29522 12.9858C4.29522 13.1558 4.35322 13.3018 4.46722 13.4258C4.58122 13.5498 4.73322 13.6118 4.91922 13.6118C4.96122 13.6118 5.11922 13.5778 5.39122 13.5098C6.51322 13.2798 7.54722 13.1658 8.49122 13.1658C10.4132 13.1658 12.1032 13.6038 13.5572 14.4798C13.7192 14.5738 13.8592 14.6198 13.9792 14.6198C14.1412 14.6198 14.2812 14.5618 14.4012 14.4478C14.5212 14.3318 14.5792 14.1858 14.5792 14.0058ZM15.8052 11.2638C15.8052 10.9238 15.6572 10.6638 15.3592 10.4858C13.3432 9.2858 11.0112 8.68581 8.36722 8.68581C7.06522 8.68581 5.77722 8.8638 4.50122 9.2218C4.09322 9.3318 3.88922 9.60381 3.88922 10.0378C3.88922 10.2498 3.96322 10.4318 4.11322 10.5798C4.26122 10.7278 4.44322 10.8038 4.65522 10.8038C4.71522 10.8038 4.87122 10.7698 5.12722 10.7018C6.16522 10.4218 7.23322 10.2798 8.32922 10.2798C10.7032 10.2798 12.7792 10.8078 14.5572 11.8618C14.7612 11.9718 14.9232 12.0278 15.0412 12.0278C15.2532 12.0278 15.4352 11.9538 15.5832 11.8038C15.7312 11.6558 15.8052 11.4758 15.8052 11.2638ZM17.1832 8.09781C17.1832 7.69781 17.0132 7.3998 16.6732 7.2038C15.6012 6.5818 14.3552 6.1118 12.9352 5.7938C11.5152 5.4738 10.0552 5.31581 8.55922 5.31581C6.82322 5.31581 5.27522 5.51581 3.91522 5.91581C3.71922 5.97581 3.55522 6.0838 3.42322 6.2418C3.29122 6.3998 3.22522 6.60581 3.22522 6.85981C3.22522 7.12381 3.31322 7.3438 3.48722 7.5238C3.66122 7.7038 3.88122 7.7918 4.14522 7.7918C4.23922 7.7918 4.40922 7.7578 4.65522 7.68981C5.78722 7.3758 7.09322 7.21781 8.57322 7.21781C9.92522 7.21781 11.2432 7.3618 12.5232 7.6518C13.8032 7.9418 14.8812 8.3458 15.7572 8.8638C15.9352 8.9658 16.1052 9.01781 16.2672 9.01781C16.5132 9.01781 16.7292 8.92981 16.9112 8.75581C17.0912 8.58181 17.1832 8.3618 17.1832 8.09781ZM19.7992 9.9998C19.7992 11.7778 19.3612 13.4178 18.4852 14.9198C17.6092 16.4198 16.4192 17.6098 14.9192 18.4858C13.4172 19.3618 11.7772 19.7998 9.99922 19.7998C8.22122 19.7998 6.58122 19.3618 5.07922 18.4858C3.57722 17.6098 2.38922 16.4198 1.51322 14.9198C0.637219 13.4178 0.199219 11.7778 0.199219 9.9998C0.199219 8.2218 0.637219 6.58181 1.51322 5.07981C2.38922 3.57981 3.57922 2.3898 5.07922 1.5138C6.58122 0.637804 8.22122 0.199804 9.99922 0.199804C11.7772 0.199804 13.4172 0.637804 14.9192 1.5138C16.4192 2.3898 17.6092 3.57981 18.4852 5.07981C19.3612 6.57981 19.7992 8.2218 19.7992 9.9998Z" fill="#053F5C"/>
</svg>
