<svg width="20" height="20" viewBox="0 0 20 20" fill="none" xmlns="http://www.w3.org/2000/svg">
<path d="M19.7992 3.92208C19.0772 4.24208 18.3032 4.45808 17.4912 4.55608C18.3212 4.05808 18.9572 3.27008 19.2592 2.33209C18.4812 2.79208 17.6212 3.12808 16.7032 3.30808C15.9712 2.52609 14.9252 2.03809 13.7692 2.03809C11.5492 2.03809 9.74722 3.83808 9.74722 6.05808C9.74722 6.37208 9.78322 6.68008 9.85122 6.97408C6.50922 6.80608 3.54722 5.20608 1.56322 2.77209C1.21922 3.36608 1.02122 4.05608 1.02122 4.79408C1.02122 6.19008 1.73122 7.42008 2.80922 8.14008C2.15122 8.11808 1.53122 7.93608 0.987219 7.63608V7.68608C0.987219 9.63408 2.37322 11.2601 4.21322 11.6301C3.87722 11.7201 3.52122 11.7701 3.15322 11.7701C2.89322 11.7701 2.64322 11.7441 2.39722 11.6961C2.90922 13.2941 4.39322 14.4561 6.15322 14.4881C4.77722 15.5661 3.04322 16.2081 1.15922 16.2081C0.835219 16.2081 0.515219 16.1881 0.199219 16.1521C1.97922 17.2941 4.09122 17.9601 6.36322 17.9601C13.7592 17.9601 17.8032 11.8321 17.8032 6.51808L17.7892 5.99808C18.5772 5.43608 19.2612 4.72808 19.7992 3.92208Z" fill="#053F5C"/>
</svg>
