<svg width="22" height="23" viewBox="0 0 22 23" fill="none" xmlns="http://www.w3.org/2000/svg">
<path d="M20.2873 1.41891C19.9046 1.20599 19.4838 1.07059 19.0488 1.02045C18.6138 0.970309 18.1732 1.00641 17.7521 1.12668C17.3311 1.24695 16.9379 1.44904 16.595 1.72139C16.2522 1.99374 15.9664 2.33101 15.7539 2.71391L9.56559 13.8506L6.02393 10.3089C5.71644 9.99054 5.34862 9.7366 4.94194 9.5619C4.53526 9.38721 4.09786 9.29525 3.65527 9.2914C3.21267 9.28756 2.77374 9.3719 2.36408 9.5395C1.95443 9.7071 1.58226 9.95461 1.26928 10.2676C0.956304 10.5806 0.708794 10.9527 0.541191 11.3624C0.373588 11.772 0.289249 12.211 0.293095 12.6536C0.296941 13.0962 0.388895 13.5336 0.563592 13.9403C0.738288 14.3469 0.992229 14.7148 1.3106 15.0222L7.97726 21.6889C8.60726 22.3206 9.45726 22.6672 10.3339 22.6672L10.7956 22.6339C11.3065 22.5624 11.7939 22.3734 12.2193 22.0815C12.6447 21.7897 12.9966 21.4032 13.2473 20.9522L21.5806 5.95224C21.7934 5.56966 21.9287 5.14892 21.9788 4.71404C22.029 4.27916 21.993 3.83866 21.8729 3.4177C21.7528 2.99674 21.5509 2.60355 21.2789 2.2606C21.0068 1.91764 20.6699 1.63164 20.2873 1.41891Z" fill="#228BE6"/>
</svg>
