<svg width="469" height="23" viewBox="0 0 469 23" fill="none" xmlns="http://www.w3.org/2000/svg">
<path fill-rule="evenodd" clip-rule="evenodd" d="M83.3247 8.75547C78.2079 9.7131 73.4055 11.0995 69.0748 13.0433C68.6031 13.2577 68.46 13.5578 68.4172 13.6865C68.3457 13.9151 68.3744 14.1296 68.4887 14.3297C68.5602 14.4584 68.6746 14.6156 68.9176 14.7157C69.0891 14.7871 69.5321 14.8443 70.1181 14.83C71.1186 14.8157 72.6623 14.7014 73.4056 14.7014C75.9497 14.73 78.4938 14.7155 81.0379 14.7584C89.142 14.9014 90.5569 15.0157 100.976 14.9299C113.14 14.8299 125.332 14.6584 137.509 14.4011C98.804 16.545 60.156 19.0463 21.7081 21.3761C21.2793 21.4046 20.9505 21.7764 20.9791 22.2052C20.9934 22.6482 21.3793 22.977 21.8081 22.9484C111.525 17.5171 202.227 11.1138 292.63 10.6993C297.089 10.7993 301.534 10.8993 305.965 10.9994C332.736 11.6283 359.521 12.3859 386.263 13.5579C394.967 13.9438 403.671 14.3725 412.39 14.7727C414.963 14.8871 417.55 15.0014 420.137 15.1158C422.224 15.2015 427.598 15.516 428.355 15.5303C429.041 15.5446 429.213 14.9301 429.227 14.9015C429.27 14.7014 429.241 14.4726 429.07 14.2582C429.027 14.201 428.913 14.0439 428.655 13.9724C428.613 13.9724 428.412 13.9438 427.998 13.9009C406.501 12.1429 384.948 10.928 363.351 10.1561C366.253 10.1847 369.154 10.1991 372.056 10.2277C394.424 10.3992 416.849 11.0138 439.204 10.2277C444.292 10.0562 449.394 9.85599 454.468 9.61301C457.884 9.45579 466.674 9.65592 467.918 9.2843C468.49 9.12708 468.618 8.72684 468.633 8.52674C468.647 8.29805 468.604 8.04078 468.347 7.81209C468.232 7.69775 467.875 7.51203 467.203 7.3691C445.264 2.60956 419.594 3.95299 397.254 2.62375C336.581 -1.02094 276.122 1.40896 215.462 3.62436C163.108 5.53961 110.753 5.63964 58.4264 8.24095C39.274 9.18428 19.5213 8.09808 0.640361 11.6999C0.211574 11.7857 -0.0600816 12.1857 0.0113829 12.6145C0.0971402 13.0433 0.511669 13.3292 0.940456 13.2435C19.7356 9.65595 39.417 10.7565 58.498 9.81313C66.7736 9.39864 75.0491 9.05562 83.3247 8.75547ZM245.192 9.81313C213.133 9.31288 181.074 9.05555 148.986 9.21277C126.975 9.31282 94.9021 5.12515 73.0339 13.1292C73.1911 13.1292 73.3196 13.1292 73.434 13.1292C75.9781 13.1578 78.5224 13.1291 81.0665 13.1862C89.1563 13.3292 90.5712 13.4435 100.962 13.3577C127.533 13.1291 154.175 12.5574 180.731 11.6713C202.242 10.9566 223.724 10.3134 245.192 9.81313ZM462.058 7.96929C441.319 4.33889 417.807 5.4253 397.154 4.19611C336.538 0.551419 276.122 2.98115 215.52 5.19655C188.435 6.19705 161.364 6.69728 134.308 7.31187C139.496 7.51197 144.456 7.65487 148.986 7.64058C194.852 7.41189 240.704 8.02659 286.57 8.99851C315.055 8.56973 343.541 8.4125 372.07 8.64119C394.424 8.827 416.807 9.42731 439.161 8.6555C444.235 8.48398 449.323 8.2838 454.397 8.04082C456.126 7.96936 459.256 7.98358 462.058 7.96929Z" fill="#228BE6"/>
</svg>
