<svg width="199" height="41" viewBox="0 0 199 41" fill="none" xmlns="http://www.w3.org/2000/svg">
<path fill-rule="evenodd" clip-rule="evenodd" d="M7.91361 40.0514V26.9272L0 0.452554H6.54723L11.2726 18.4983H11.3865L16.1119 0.452554H22.0898L14.1762 26.9272V40.0514H7.91361ZM29.491 9.56029V30.9436C29.491 33.7721 30.7435 34.847 32.7362 34.847C34.7288 34.847 35.9813 33.7721 35.9813 30.9436V9.56029C35.9813 6.7318 34.7288 5.65698 32.7362 5.65698C30.7435 5.65698 29.491 6.7318 29.491 9.56029ZM23.2285 30.5477V9.95627C23.2285 3.62046 26.5875 0 32.7362 0C38.8849 0 42.2439 3.62046 42.2439 9.95627V30.5477C42.2439 36.8835 38.8849 40.5039 32.7362 40.5039C26.5875 40.5039 23.2285 36.8835 23.2285 30.5477ZM46.0014 0.452554H52.264V31.0002C52.264 33.8287 53.5165 34.847 55.5092 34.847C57.5018 34.847 58.7543 33.8287 58.7543 31.0002V0.452554H64.6753V30.6042C64.6753 36.94 61.4871 40.5605 55.3384 40.5605C49.1897 40.5605 46.0014 36.94 46.0014 30.6042V0.452554ZM88.4161 40.0514H82.0397C81.6981 39.0331 81.4704 38.4109 81.4704 35.1864V28.9637C81.4704 25.2867 80.2179 23.929 77.3712 23.929H75.2078V40.0514H68.9452V0.452554H78.396C84.8863 0.452554 87.676 3.45076 87.676 9.56029V12.6716C87.676 16.7446 86.3666 19.3469 83.5769 20.648V20.7611C86.7082 22.0622 87.7329 25.0038 87.7329 29.1334V35.243C87.7329 37.1663 87.7899 38.5806 88.4161 40.0514ZM78.2252 6.10953H75.2078V18.272H77.6559C79.9901 18.272 81.4134 17.2538 81.4134 14.0859V10.1826C81.4134 7.35407 80.4456 6.10953 78.2252 6.10953ZM91.035 9.95627C91.035 3.62046 94.1663 0 100.258 0C106.35 0 109.481 3.62046 109.481 9.95627V11.2008H103.56V9.56029C103.56 6.7318 102.422 5.65698 100.429 5.65698C98.4363 5.65698 97.2976 6.7318 97.2976 9.56029C97.2976 12.4453 98.5501 14.595 102.649 18.1589C107.887 22.741 109.538 26.0221 109.538 30.5477C109.538 36.8835 106.35 40.5039 100.201 40.5039C94.0525 40.5039 90.8642 36.8835 90.8642 30.5477V28.1152H96.7852V30.9436C96.7852 33.7721 98.0377 34.7904 100.03 34.7904C102.023 34.7904 103.276 33.7721 103.276 30.9436C103.276 28.0586 102.023 25.909 97.9239 22.3451C92.6861 17.7629 91.035 14.4819 91.035 9.95627ZM111.303 6.10953V0.452554H130.66V6.10953H124.113V40.0514H117.85V6.10953H111.303ZM139.143 9.56029V30.9436C139.143 33.7721 140.395 34.847 142.388 34.847C144.381 34.847 145.633 33.7721 145.633 30.9436V9.56029C145.633 6.7318 144.381 5.65698 142.388 5.65698C140.395 5.65698 139.143 6.7318 139.143 9.56029ZM132.88 30.5477V9.95627C132.88 3.62046 136.239 0 142.388 0C148.537 0 151.896 3.62046 151.896 9.95627V30.5477C151.896 36.8835 148.537 40.5039 142.388 40.5039C136.239 40.5039 132.88 36.8835 132.88 30.5477ZM175.409 40.0514H169.033C168.691 39.0331 168.463 38.4109 168.463 35.1864V28.9637C168.463 25.2867 167.211 23.929 164.364 23.929H162.201V40.0514H155.938V0.452554H165.389C171.879 0.452554 174.669 3.45076 174.669 9.56029V12.6716C174.669 16.7446 173.359 19.3469 170.57 20.648V20.7611C173.701 22.0622 174.726 25.0038 174.726 29.1334V35.243C174.726 37.1663 174.783 38.5806 175.409 40.0514ZM165.218 6.10953H162.201V18.272H164.649C166.983 18.272 168.406 17.2538 168.406 14.0859V10.1826C168.406 7.35407 167.438 6.10953 165.218 6.10953ZM184.12 40.0514V26.9272L176.206 0.452554H182.753L187.479 18.4983H187.593L192.318 0.452554H198.296L190.382 26.9272V40.0514H184.12Z" fill="#EF4136"/>
</svg>
